<?xml version="1.0" encoding="utf-8"?>
<!-- Generator: Adobe Illustrator 15.0.0, SVG Export Plug-In  -->
<!DOCTYPE svg PUBLIC "-//W3C//DTD SVG 1.1//EN" "http://www.w3.org/Graphics/SVG/1.1/DTD/svg11.dtd" [
	<!ENTITY ns_flows "http://ns.adobe.com/Flows/1.0/">
]>
<svg version="1.1"
	 xmlns="http://www.w3.org/2000/svg" xmlns:xlink="http://www.w3.org/1999/xlink" xmlns:a="http://ns.adobe.com/AdobeSVGViewerExtensions/3.0/"
	 x="0px" y="0px" width="800px" height="800px" viewBox="-11.052 -89.495 800 800" enable-background="new -11.052 -89.495 800 800"
	 xml:space="preserve">
<defs>
</defs>
<rect x="96.93" y="300.604" fill="#1884AA" width="25.531" height="32.382"/>
<rect x="147.993" y="214.412" fill="#1884AA" width="25.526" height="118.574"/>
<rect x="199.048" y="199.617" fill="#1884AA" width="25.529" height="133.369"/>
<rect x="250.113" y="212.999" fill="#1884AA" width="25.523" height="119.987"/>
<rect x="301.17" y="165.074" fill="#1884AA" width="25.526" height="167.912"/>
<rect x="352.233" y="181.162" fill="#1884AA" width="25.529" height="151.824"/>
<rect x="403.295" y="147.919" fill="#1884AA" width="25.526" height="185.067"/>
<rect x="454.348" y="257.919" fill="#1884AA" width="25.531" height="75.066"/>
<rect x="505.414" y="294.782" fill="#1884AA" width="25.516" height="38.204"/>
<rect x="352.328" y="353.091" fill="#1884AA" width="25.531" height="29.007"/>
<rect x="403.385" y="353.091" fill="#1884AA" width="25.534" height="118.58"/>
<rect x="454.448" y="353.091" fill="#1884AA" width="25.526" height="133.368"/>
<rect x="505.513" y="353.091" fill="#1884AA" width="25.521" height="61.995"/>
<rect x="556.568" y="353.091" fill="#1884AA" width="25.536" height="167.91"/>
<rect x="607.63" y="353.091" fill="#1884AA" width="25.529" height="100.803"/>
<rect x="658.693" y="353.091" fill="#1884AA" width="25.524" height="185.071"/>
<rect x="709.749" y="353.091" fill="#1884AA" width="25.533" height="124.087"/>
<rect x="760.813" y="353.091" fill="#1884AA" width="25.517" height="50.354"/>
<g>
	<g>
		
			<rect x="0.034" y="428.019" transform="matrix(1 0.0028 -0.0028 1 1.2353 -0.2532)" fill="#FFE100" width="181.721" height="24.456"/>
		<g>
			<g>
				<rect x="179.49" y="428.271" fill="#66441B" width="0.668" height="6.503"/>
			</g>
			<g>
				<rect x="177.576" y="428.265" fill="#66441B" width="0.666" height="3.959"/>
			</g>
			<g>
				<rect x="175.658" y="428.257" fill="#66441B" width="0.668" height="3.962"/>
			</g>
			<g>
				<rect x="173.739" y="428.254" fill="#66441B" width="0.666" height="3.959"/>
			</g>
			<g>
				<polygon fill="#66441B" points="172.483,432.211 171.815,432.204 171.828,428.248 172.496,428.25 				"/>
			</g>
			<g>
				<polygon fill="#66441B" points="170.264,434.748 169.599,434.742 169.619,428.24 170.285,428.24 				"/>
			</g>
			<g>
				<rect x="167.696" y="428.235" fill="#66441B" width="0.665" height="3.964"/>
			</g>
			<g>
				<rect x="165.778" y="428.231" fill="#66441B" width="0.666" height="3.961"/>
			</g>
			<g>
				<polygon fill="#66441B" points="164.521,432.188 163.856,432.186 163.864,428.227 164.535,428.227 				"/>
			</g>
			<g>
				<rect x="161.942" y="428.219" fill="#66441B" width="0.668" height="3.961"/>
			</g>
			<g>
				<rect x="159.729" y="428.216" fill="#66441B" width="0.665" height="6.502"/>
			</g>
			<g>
				<rect x="157.817" y="428.208" fill="#66441B" width="0.665" height="3.959"/>
			</g>
			<g>
				<rect x="155.898" y="428.204" fill="#66441B" width="0.668" height="3.959"/>
			</g>
			<g>
				<rect x="153.98" y="428.196" fill="#66441B" width="0.668" height="3.962"/>
			</g>
			<g>
				<rect x="152.063" y="428.192" fill="#66441B" width="0.666" height="3.962"/>
			</g>
			<g>
				<rect x="149.848" y="428.187" fill="#66441B" width="0.67" height="6.502"/>
			</g>
			<g>
				<rect x="147.934" y="428.178" fill="#66441B" width="0.665" height="3.964"/>
			</g>
			<g>
				<polygon fill="#66441B" points="146.678,432.137 146.01,432.132 146.022,428.173 146.688,428.178 				"/>
			</g>
			<g>
				<polygon fill="#66441B" points="144.758,432.132 144.093,432.126 144.106,428.17 144.774,428.17 				"/>
			</g>
			<g>
				<rect x="142.181" y="428.164" fill="#66441B" width="0.668" height="3.959"/>
			</g>
			<g>
				<rect x="139.969" y="428.158" fill="#66441B" width="0.665" height="6.505"/>
			</g>
			<g>
				<rect x="138.054" y="428.151" fill="#66441B" width="0.667" height="3.962"/>
			</g>
			<g>
				<rect x="136.137" y="428.149" fill="#66441B" width="0.666" height="3.958"/>
			</g>
			<g>
				<polygon fill="#66441B" points="134.878,432.104 134.215,432.104 134.223,428.142 134.894,428.142 				"/>
			</g>
			<g>
				<rect x="132.301" y="428.136" fill="#66441B" width="0.666" height="3.962"/>
			</g>
			<g>
				<rect x="130.089" y="428.129" fill="#66441B" width="0.665" height="6.505"/>
			</g>
			<g>
				<rect x="128.174" y="428.127" fill="#66441B" width="0.665" height="3.959"/>
			</g>
			<g>
				<rect x="126.257" y="428.123" fill="#66441B" width="0.666" height="3.957"/>
			</g>
			<g>
				<rect x="124.34" y="428.115" fill="#66441B" width="0.665" height="3.961"/>
			</g>
			<g>
				<rect x="122.421" y="428.107" fill="#66441B" width="0.668" height="3.964"/>
			</g>
			<g>
				<rect x="120.208" y="428.101" fill="#66441B" width="0.665" height="6.506"/>
			</g>
			<g>
				<rect x="118.293" y="428.096" fill="#66441B" width="0.668" height="3.962"/>
			</g>
			<g>
				<rect x="116.375" y="428.088" fill="#66441B" width="0.666" height="3.964"/>
			</g>
			<g>
				<rect x="114.458" y="428.086" fill="#66441B" width="0.667" height="3.961"/>
			</g>
			<g>
				<rect x="112.539" y="428.082" fill="#66441B" width="0.668" height="3.961"/>
			</g>
			<g>
				<polygon fill="#66441B" points="110.987,434.579 110.316,434.579 110.34,428.076 111.002,428.076 				"/>
			</g>
			<g>
				<rect x="108.414" y="428.069" fill="#66441B" width="0.665" height="3.962"/>
			</g>
			<g>
				<rect x="106.495" y="428.063" fill="#66441B" width="0.666" height="3.962"/>
			</g>
			<g>
				<rect x="104.578" y="428.058" fill="#66441B" width="0.665" height="3.959"/>
			</g>
			<g>
				<rect x="102.661" y="428.052" fill="#66441B" width="0.666" height="3.961"/>
			</g>
			<g>
				<polygon fill="#66441B" points="101.104,434.553 100.439,434.553 100.454,428.045 101.125,428.047 				"/>
			</g>
			<g>
				<polygon fill="#66441B" points="99.192,432.001 98.527,431.999 98.538,428.042 99.208,428.042 				"/>
			</g>
			<g>
				<rect x="96.615" y="428.039" fill="#66441B" width="0.668" height="3.956"/>
			</g>
			<g>
				<rect x="94.695" y="428.033" fill="#66441B" width="0.67" height="3.959"/>
			</g>
			<g>
				<rect x="92.781" y="428.025" fill="#66441B" width="0.663" height="3.961"/>
			</g>
			<g>
				<polygon fill="#66441B" points="91.227,434.522 90.556,434.522 90.576,428.017 91.242,428.017 				"/>
			</g>
			<g>
				<rect x="88.652" y="428.012" fill="#66441B" width="0.665" height="3.961"/>
			</g>
			<g>
				<rect x="86.735" y="428.007" fill="#66441B" width="0.668" height="3.961"/>
			</g>
			<g>
				<rect x="84.817" y="428.001" fill="#66441B" width="0.666" height="3.962"/>
			</g>
			<g>
				<rect x="82.899" y="427.999" fill="#66441B" width="0.668" height="3.959"/>
			</g>
			<g>
				<polygon fill="#66441B" points="81.343,434.497 80.678,434.492 80.696,427.989 81.361,427.994 				"/>
			</g>
			<g>
				<rect x="78.771" y="427.989" fill="#66441B" width="0.667" height="3.956"/>
			</g>
			<g>
				
					<rect x="76.855" y="427.982" transform="matrix(1 0.0088 -0.0088 1 3.7883 -0.6629)" fill="#66441B" width="0.666" height="3.958"/>
			</g>
			<g>
				<polygon fill="#66441B" points="75.599,431.935 74.928,431.932 74.943,427.973 75.606,427.976 				"/>
			</g>
			<g>
				<rect x="73.019" y="427.969" fill="#66441B" width="0.668" height="3.962"/>
			</g>
			<g>
				<rect x="70.807" y="427.962" fill="#66441B" width="0.665" height="6.503"/>
			</g>
			<g>
				<rect x="68.891" y="427.956" fill="#66441B" width="0.667" height="3.964"/>
			</g>
			<g>
				<rect x="66.973" y="427.952" fill="#66441B" width="0.666" height="3.961"/>
			</g>
			<g>
				<rect x="65.057" y="427.948" fill="#66441B" width="0.668" height="3.959"/>
			</g>
			<g>
				<rect x="63.138" y="427.941" fill="#66441B" width="0.666" height="3.959"/>
			</g>
			<g>
				<rect x="60.924" y="427.936" fill="#66441B" width="0.668" height="6.503"/>
			</g>
			<g>
				<polygon fill="#66441B" points="59.674,431.891 59.006,431.889 59.019,427.93 59.681,427.93 				"/>
			</g>
			<g>
				<rect x="57.094" y="427.925" fill="#66441B" width="0.663" height="3.958"/>
			</g>
			<g>
				<rect x="55.175" y="427.917" fill="#66441B" width="0.668" height="3.964"/>
			</g>
			<g>
				<rect x="53.257" y="427.916" fill="#66441B" width="0.666" height="3.959"/>
			</g>
			<g>
				<rect x="51.045" y="427.906" fill="#66441B" width="0.665" height="6.505"/>
			</g>
			<g>
				<polygon fill="#66441B" points="49.793,431.863 49.125,431.863 49.138,427.899 49.801,427.905 				"/>
			</g>
			<g>
				<rect x="47.214" y="427.898" fill="#66441B" width="0.666" height="3.959"/>
			</g>
			<g>
				<rect x="45.295" y="427.891" fill="#66441B" width="0.668" height="3.961"/>
			</g>
			<g>
				<rect x="43.378" y="427.886" fill="#66441B" width="0.666" height="3.961"/>
			</g>
			<g>
				<polygon fill="#66441B" points="41.819,434.384 41.157,434.381 41.172,427.878 41.84,427.881 				"/>
			</g>
			<g>
				<rect x="39.253" y="427.875" fill="#66441B" width="0.663" height="3.959"/>
			</g>
			<g>
				<rect x="37.332" y="427.867" fill="#66441B" width="0.668" height="3.962"/>
			</g>
			<g>
				<rect x="35.416" y="427.862" fill="#66441B" width="0.665" height="3.962"/>
			</g>
			<g>
				<polygon fill="#66441B" points="34.16,431.82 33.49,431.817 33.505,427.856 34.17,427.856 				"/>
			</g>
			<g>
				<rect x="31.284" y="427.853" fill="#66441B" width="0.667" height="6.502"/>
			</g>
			<g>
				<rect x="29.37" y="427.847" fill="#66441B" width="0.666" height="3.962"/>
			</g>
			<g>
				<rect x="27.452" y="427.842" fill="#66441B" width="0.668" height="3.959"/>
			</g>
			<g>
				<rect x="25.535" y="427.833" fill="#66441B" width="0.665" height="3.962"/>
			</g>
			<g>
				<rect x="23.617" y="427.828" fill="#66441B" width="0.666" height="3.961"/>
			</g>
			<g>
				<rect x="21.404" y="427.82" fill="#66441B" width="0.667" height="6.508"/>
			</g>
			<g>
				<rect x="19.491" y="427.819" fill="#66441B" width="0.663" height="3.961"/>
			</g>
			<g>
				<rect x="17.571" y="427.812" fill="#66441B" width="0.67" height="3.962"/>
			</g>
			<g>
				<rect x="15.654" y="427.807" fill="#66441B" width="0.666" height="3.962"/>
			</g>
			<g>
				<rect x="13.737" y="427.802" fill="#66441B" width="0.666" height="3.961"/>
			</g>
			<g>
				<rect x="11.522" y="427.796" fill="#66441B" width="0.67" height="6.505"/>
			</g>
			<g>
				<rect x="9.608" y="427.792" fill="#66441B" width="0.668" height="3.959"/>
			</g>
			<g>
				<rect x="7.691" y="427.786" fill="#66441B" width="0.668" height="3.958"/>
			</g>
			<g>
				<rect x="5.772" y="427.78" fill="#66441B" width="0.667" height="3.959"/>
			</g>
			<g>
				<rect x="3.856" y="427.771" fill="#66441B" width="0.668" height="3.965"/>
			</g>
			<g>
				<rect x="1.644" y="427.766" fill="#66441B" width="0.666" height="6.505"/>
			</g>
		</g>
	</g>
</g>
<path opacity="0.4" fill="#1884AA" d="M647.958,116.04l30.726-7.919l-10.279-39.925l-31.141,8.011
	c-3.79-6.728-8.547-12.954-14.211-18.495l17.351-29.388L604.898,7.362l-17.532,29.686c-8.476-2.383-17.133-3.396-25.708-3.061
	L552.911,0l-39.938,10.291l9.123,35.419c-5.985,3.586-11.516,8.037-16.519,13.148l-30.567-18.05l-20.966,35.515l30.869,18.226
	c-2.006,7.157-3.042,14.438-3.102,21.7l-33.036,8.504l10.289,39.932l32.623-8.409c3.705,6.922,8.398,13.329,14.036,19.047
	L489.59,202.65l35.51,20.964l15.95-27.023c6.853,2.063,13.844,3.286,20.82,3.543l7.664,29.775l39.934-10.278l-7.294-28.341
	c7.665-3.849,14.756-8.917,21.027-15.101l26.139,15.431l20.963-35.509l-25.833-15.249
	C646.919,132.696,648.055,124.349,647.958,116.04z M563.739,171.993c-31.507,0-57.041-25.538-57.041-57.038
	c0-31.5,25.534-57.04,57.041-57.04c31.491,0,57.029,25.54,57.029,57.04C620.768,146.455,595.23,171.993,563.739,171.993z"/>
<rect x="164.376" y="137.372" fill="#15B0BF" width="53.197" height="57.199"/>
<polygon fill="#F99B1C" points="171.879,140.365 164.376,137.372 164.376,194.571 171.879,197.565 "/>
<polygon fill="#1695A4" points="171.879,197.565 159.143,201.665 159.143,144.465 171.879,140.365 "/>
<polygon fill="#F99B1C" points="208.271,140.365 217.56,137.372 217.56,194.571 208.271,197.565 "/>
<polygon fill="#1695A4" points="208.271,197.565 212.137,202.171 211.902,144.465 208.271,140.365 "/>
<rect x="159.143" y="144.465" fill="#FEC00F" width="53.194" height="57.199"/>
<circle fill="#1695A4" cx="172.952" cy="151.506" r="1.982"/>
<circle fill="#1695A4" cx="199.973" cy="151.506" r="1.982"/>
<path fill="#F99B1C" d="M188.766,172.163h-4.729c-6.738,0-12.217-6.058-12.217-13.501v-7.155c0-0.592,0.479-1.071,1.07-1.071
	c0.594,0,1.07,0.479,1.07,1.071v7.155c0,6.263,4.521,11.363,10.077,11.363h4.729c5.553,0,10.075-5.1,10.075-11.363v-7.155
	c0-0.592,0.479-1.071,1.069-1.071c0.591,0,1.072,0.479,1.072,1.071v7.155C200.982,166.105,195.499,172.163,188.766,172.163
	L188.766,172.163z"/>
<path fill="#F99B1C" d="M183.702,191.665v-4.195c-2.958-0.13-5.827-0.97-7.5-1.896l1.323-5.16c1.848,1.012,4.45,1.941,7.321,1.941
	c2.562,0,4.284-1.015,4.284-2.731c0-1.679-1.416-2.742-4.727-3.844c-4.719-1.59-7.941-3.792-7.941-8.074
	c0-3.924,2.738-6.975,7.455-7.85v-4.196h4.325v3.882c2.915,0.091,4.903,0.751,6.446,1.457l-1.326,4.985
	c-1.103-0.531-3.171-1.543-6.356-1.543c-2.861,0-3.79,1.28-3.79,2.512c0,1.411,1.543,2.382,5.335,3.751
	c5.251,1.852,7.327,4.281,7.327,8.295c0,3.927-2.733,7.285-7.815,8.122v4.543H183.702z"/>
<path fill="#A6DAE9" d="M191.299,140.24v-2.288c-1.617-0.073-3.181-0.531-4.092-1.035l0.719-2.816
	c1.011,0.553,2.429,1.059,3.995,1.059c1.4,0,2.336-0.553,2.336-1.489c0-0.916-0.77-1.497-2.577-2.097
	c-2.575-0.869-4.333-2.07-4.333-4.404c0-2.144,1.494-3.805,4.066-4.285v-2.287h2.362v2.116c1.589,0.05,2.674,0.41,3.516,0.796
	l-0.722,2.719c-0.604-0.288-1.735-0.841-3.473-0.841c-1.559,0-2.065,0.697-2.065,1.371c0,0.769,0.842,1.298,2.912,2.047
	c2.861,1.01,3.995,2.334,3.995,4.524c0,2.142-1.489,3.974-4.261,4.43v2.479H191.299z"/>
<path fill="#A6DAE9" d="M180.564,125.296V124c-0.916-0.041-1.804-0.298-2.318-0.586l0.41-1.596c0.57,0.313,1.374,0.6,2.262,0.6
	c0.793,0,1.323-0.314,1.323-0.846c0-0.518-0.433-0.848-1.461-1.188c-1.459-0.491-2.452-1.172-2.452-2.495
	c0-1.215,0.844-2.157,2.303-2.43v-1.296h1.338v1.202c0.9,0.028,1.515,0.231,1.996,0.449l-0.415,1.542
	c-0.337-0.162-0.98-0.477-1.965-0.477c-0.885,0-1.172,0.396-1.172,0.778c0,0.437,0.479,0.736,1.651,1.159
	c1.622,0.573,2.267,1.324,2.267,2.567c0,1.213-0.847,2.25-2.418,2.51v1.404H180.564z"/>
<path fill="#FFFFFF" d="M188.766,170.083h-4.729c-6.705,0-12.16-5.454-12.16-12.159v-6.417c0-0.56,0.455-1.013,1.013-1.013
	s1.013,0.453,1.013,1.013v6.417c0,5.587,4.545,10.134,10.134,10.134h4.729c5.586,0,10.131-4.546,10.131-10.134v-6.417
	c0-0.56,0.453-1.013,1.013-1.013c0.561,0,1.014,0.453,1.014,1.013v6.417C200.924,164.629,195.468,170.083,188.766,170.083
	L188.766,170.083z"/>
<path fill="#0E303F" d="M710.79,243.09c0,1.84-1.494,3.339-3.337,3.339h-67.627c-1.843,0-3.337-1.5-3.337-3.339v-87.206
	c0-1.844,1.494-3.337,3.337-3.337h67.627c1.843,0,3.337,1.493,3.337,3.337V243.09z"/>
<path fill="#2C5871" d="M710.79,240.577c0,1.843-1.494,3.337-3.337,3.337h-67.627c-1.843,0-3.337-1.494-3.337-3.337v-87.206
	c0-1.844,1.494-3.337,3.337-3.337h67.627c1.843,0,3.337,1.493,3.337,3.337V240.577z"/>
<rect x="642.495" y="156.04" fill="#FFFFFF" width="62.289" height="81.868"/>
<rect x="642.495" y="235.236" fill="#A6DAE9" width="62.289" height="2.671"/>
<path fill="#F99B1C" d="M688.099,160.382v-3.338c0-1.105-0.896-2.002-2.001-2.002h-24.915c-1.108,0-2.004,0.897-2.004,2.002v3.338
	H688.099z"/>
<path fill="#FEC00F" d="M688.099,158.932v-3.337c0-1.107-0.896-2.002-2.001-2.002h-24.915c-1.108,0-2.004,0.896-2.004,2.002v3.337
	H688.099z"/>
<circle fill="#FEC00F" cx="673.639" cy="153.371" r="4.672"/>
<circle fill="#0E303F" cx="673.639" cy="153.371" r="2.002"/>
<rect x="657.575" y="177.928" fill="#A6DAE9" width="38.82" height="2.043"/>
<rect x="657.575" y="186.309" fill="#A6DAE9" width="38.82" height="2.04"/>
<rect x="657.575" y="194.69" fill="#A6DAE9" width="38.82" height="2.038"/>
<rect x="657.575" y="203.065" fill="#A6DAE9" width="38.82" height="2.041"/>
<path fill="#15B0BF" d="M650.374,181.35c-0.256,0-0.499-0.102-0.676-0.291l-1.53-1.603c-0.355-0.374-0.34-0.962,0.034-1.318
	c0.371-0.355,0.962-0.342,1.317,0.032l0.804,0.842l2.707-3.305c0.325-0.396,0.914-0.454,1.313-0.129
	c0.398,0.328,0.455,0.915,0.128,1.313l-3.376,4.119c-0.169,0.208-0.42,0.33-0.688,0.34
	C650.397,181.35,650.386,181.35,650.374,181.35L650.374,181.35z"/>
<path fill="#15B0BF" d="M650.374,189.4c-0.256,0-0.499-0.103-0.676-0.289l-1.53-1.604c-0.355-0.374-0.34-0.962,0.034-1.318
	c0.371-0.356,0.962-0.342,1.317,0.031l0.804,0.843l2.707-3.303c0.325-0.398,0.914-0.457,1.313-0.13
	c0.398,0.328,0.455,0.915,0.128,1.313l-3.376,4.116c-0.169,0.208-0.42,0.333-0.688,0.342C650.397,189.4,650.386,189.4,650.374,189.4
	L650.374,189.4z"/>
<path fill="#15B0BF" d="M650.374,197.454c-0.256,0-0.499-0.105-0.676-0.291l-1.53-1.607c-0.355-0.373-0.34-0.962,0.034-1.316
	c0.373-0.357,0.962-0.342,1.317,0.03l0.804,0.843l2.707-3.302c0.325-0.396,0.914-0.457,1.313-0.13
	c0.398,0.327,0.455,0.915,0.128,1.313l-3.376,4.119c-0.169,0.205-0.42,0.332-0.688,0.342
	C650.397,197.454,650.386,197.454,650.374,197.454L650.374,197.454z"/>
<path fill="#15B0BF" d="M675.388,226.955c-0.046,0-0.085-0.002-0.112-0.007c-0.53-0.092-0.775-0.722-0.93-1.262
	c-0.46-1.612-0.202-3.365,0.684-4.772c-0.153-0.479-0.348-0.952-0.599-1.397c-0.141-0.248-0.054-0.565,0.197-0.706
	c0.251-0.141,0.567-0.051,0.709,0.199c0.171,0.302,0.319,0.62,0.45,0.947c0.946-0.958,2.198-1.495,3.526-1.495
	c1.709,0,3.301,1.545,4.222,2.991c0.033,0.057,0.069,0.11,0.107,0.172c1.595-1.07,3.711-1.886,4.883-1.75
	c1.525,0.184,1.694,1.64,1.712,2.59c0.412-0.566,0.551-0.97,0.655-1.27c0.392-1.136,0.786-1.057,3.337-0.565l0.53,0.1
	c0.281,0.057,0.468,0.328,0.414,0.606c-0.057,0.284-0.33,0.468-0.609,0.415l-0.532-0.102c-1.054-0.205-1.834-0.354-2.08-0.33
	c-0.023,0.056-0.051,0.143-0.077,0.215c-0.13,0.376-0.327,0.944-0.938,1.722c-0.415,0.535-0.804,0.957-1.274,0.793
	c-0.471-0.161-0.466-0.663-0.464-1.244c0.008-1.193-0.114-1.814-0.796-1.896c-1.038-0.123-2.935,0.724-4.278,1.641
	c0.415,0.944,0.591,1.917,0.151,2.505c-0.188,0.246-0.633,0.622-1.563,0.356c-1.26-0.361-1.186-1.241-1.132-1.502
	c0.107-0.524,0.571-1.105,1.224-1.658c-0.044-0.077-0.095-0.159-0.146-0.238c-0.737-1.159-2.056-2.51-3.345-2.51
	c-1.241,0-2.357,0.565-3.147,1.599c0.608,2.329,0.389,4.747-0.128,5.484C675.818,226.896,675.557,226.955,675.388,226.955
	L675.388,226.955z M675.396,222.572c-0.292,0.908-0.315,1.896-0.049,2.83c0.005,0.025,0.013,0.051,0.021,0.077
	C675.499,224.852,675.557,223.767,675.396,222.572L675.396,222.572z M683.275,223.209c-0.376,0.337-0.627,0.655-0.676,0.906
	c-0.01,0.046-0.035,0.171,0.397,0.294c0.286,0.087,0.424,0.054,0.445,0.025C683.534,224.312,683.526,223.869,683.275,223.209
	L683.275,223.209z"/>
<polyline fill="#15B0BF" points="725.422,172.429 725.422,220.161 734.41,220.161 734.41,172.429 "/>
<path fill="#FEC00F" d="M734.41,220.847c0,0.433-0.351,0.924-0.788,1.06c-2.424,0.67-4.985,0.67-7.411,0
	c-0.44-0.133-0.788-0.627-0.788-1.06c0-0.796,0-0.686,0-0.686h8.987C734.41,220.161,734.41,220.051,734.41,220.847z"/>
<rect x="725.422" y="172.429" fill="#1695A4" width="1.453" height="47.732"/>
<rect x="729.913" y="172.429" fill="#1695A4" width="3.002" height="47.732"/>
<polygon fill="#FFFFFF" points="734.41,172.429 732.907,173.729 731.413,172.429 729.916,173.729 728.418,172.429 726.919,173.729 
	725.422,172.429 729.916,166.716 "/>
<path fill="#15B0BF" d="M728.137,168.977l1.778-2.261l1.778,2.261c-0.565,0.167-1.159,0.258-1.778,0.258
	S728.703,169.145,728.137,168.977z"/>
<path fill="#4B4C4E" d="M352.069,115.158c0-2.678,2.201-4.847,4.916-4.847h193.421c2.715,0,4.916,2.168,4.916,4.847v292.359
	c0,2.685-2.201,4.844-4.916,4.844H356.985c-2.715,0-4.916-2.159-4.916-4.844V115.158z"/>
<path fill="#010101" d="M547.783,212.879c0,2.677-2.167,4.848-4.847,4.848H364.455c-2.679,0-4.847-2.171-4.847-4.848V120.81
	c0-2.677,2.168-4.847,4.847-4.847h178.481c2.68,0,4.847,2.17,4.847,4.847V212.879z"/>
<path fill="#767678" d="M542.166,393.923c0,2.677-2.17,4.852-4.847,4.852H369.87c-2.677,0-4.844-2.175-4.844-4.852V239.4
	c0-2.678,2.167-4.848,4.844-4.848h167.449c2.677,0,4.847,2.17,4.847,4.848V393.923z"/>
<path fill="#99AA89" d="M523.554,203.455H377.908c-1.331,0-2.424-1.081-2.424-2.422v-44.417c0-1.334,1.093-2.426,2.424-2.426h2.426
	C380.333,154.189,466.48,162.542,523.554,203.455z"/>
<path fill="#ABBCA2" d="M534.056,156.616v44.417c0,1.341-1.09,2.422-2.426,2.422h-8.076
	c-57.074-40.912-143.221-49.265-143.221-49.265H531.63C532.966,154.189,534.056,155.281,534.056,156.616z"/>
<path fill="#C1272D" d="M401.571,254.606c0,1.337-1.09,2.427-2.426,2.427h-21.133c-1.335,0-2.423-1.09-2.423-2.427v-10.094
	c0-1.341,1.088-2.423,2.423-2.423h21.133c1.336,0,2.426,1.083,2.426,2.423V254.606z"/>
<path fill="#010101" d="M434.076,254.606c0,1.337-1.083,2.427-2.421,2.427H410.52c-1.339,0-2.421-1.09-2.421-2.427v-10.094
	c0-1.341,1.082-2.423,2.421-2.423h21.135c1.338,0,2.421,1.083,2.421,2.423V254.606z"/>
<path fill="#010101" d="M466.583,254.606c0,1.337-1.082,2.427-2.421,2.427h-21.135c-1.338,0-2.423-1.09-2.423-2.427v-10.094
	c0-1.341,1.085-2.423,2.423-2.423h21.135c1.339,0,2.421,1.083,2.421,2.423V254.606z"/>
<path fill="#010101" d="M499.09,254.606c0,1.337-1.086,2.427-2.424,2.427h-21.13c-1.344,0-2.426-1.09-2.426-2.427v-10.094
	c0-1.341,1.082-2.423,2.426-2.423h21.13c1.338,0,2.424,1.083,2.424,2.423V254.606z"/>
<path fill="#010101" d="M531.6,254.606c0,1.337-1.086,2.427-2.424,2.427h-21.133c-1.343,0-2.423-1.09-2.423-2.427v-10.094
	c0-1.341,1.08-2.423,2.423-2.423h21.133c1.338,0,2.424,1.083,2.424,2.423V254.606z"/>
<path fill="#010101" d="M401.571,283.279c0,1.339-1.09,2.418-2.426,2.418h-21.133c-1.335,0-2.423-1.079-2.423-2.418v-16.958
	c0-1.341,1.088-2.425,2.423-2.425h21.133c1.336,0,2.426,1.083,2.426,2.425V283.279z"/>
<path fill="#010101" d="M434.076,283.279c0,1.339-1.083,2.418-2.421,2.418H410.52c-1.339,0-2.421-1.079-2.421-2.418v-16.958
	c0-1.341,1.082-2.425,2.421-2.425h21.135c1.338,0,2.421,1.083,2.421,2.425V283.279z"/>
<path fill="#010101" d="M466.583,283.279c0,1.339-1.082,2.418-2.421,2.418h-21.135c-1.338,0-2.423-1.079-2.423-2.418v-16.958
	c0-1.341,1.085-2.425,2.423-2.425h21.135c1.339,0,2.421,1.083,2.421,2.425V283.279z"/>
<path fill="#010101" d="M499.09,283.279c0,1.339-1.086,2.418-2.424,2.418h-21.13c-1.344,0-2.426-1.079-2.426-2.418v-16.958
	c0-1.341,1.082-2.425,2.426-2.425h21.13c1.338,0,2.424,1.083,2.424,2.425V283.279z"/>
<path fill="#010101" d="M531.6,283.279c0,1.339-1.086,2.418-2.424,2.418h-21.133c-1.343,0-2.423-1.079-2.423-2.418v-16.958
	c0-1.341,1.08-2.425,2.423-2.425h21.133c1.338,0,2.424,1.083,2.424,2.425V283.279z"/>
<path fill="#010101" d="M401.571,309.66c0,1.342-1.09,2.424-2.426,2.424h-21.133c-1.335,0-2.423-1.082-2.423-2.424v-16.958
	c0-1.341,1.088-2.424,2.423-2.424h21.133c1.336,0,2.426,1.083,2.426,2.424V309.66z"/>
<path fill="#010101" d="M434.076,309.66c0,1.342-1.083,2.424-2.421,2.424H410.52c-1.339,0-2.421-1.082-2.421-2.424v-16.958
	c0-1.341,1.082-2.424,2.421-2.424h21.135c1.338,0,2.421,1.083,2.421,2.424V309.66z"/>
<path fill="#010101" d="M466.583,309.66c0,1.342-1.082,2.424-2.421,2.424h-21.135c-1.338,0-2.423-1.082-2.423-2.424v-16.958
	c0-1.341,1.085-2.424,2.423-2.424h21.135c1.339,0,2.421,1.083,2.421,2.424V309.66z"/>
<path fill="#010101" d="M499.09,309.66c0,1.342-1.086,2.424-2.424,2.424h-21.13c-1.344,0-2.426-1.082-2.426-2.424v-16.958
	c0-1.341,1.082-2.424,2.426-2.424h21.13c1.338,0,2.424,1.083,2.424,2.424V309.66z"/>
<path fill="#010101" d="M531.6,309.66c0,1.342-1.086,2.424-2.424,2.424h-21.133c-1.343,0-2.423-1.082-2.423-2.424v-16.958
	c0-1.341,1.08-2.424,2.423-2.424h21.133c1.338,0,2.424,1.083,2.424,2.424V309.66z"/>
<path fill="#010101" d="M401.571,336.041c0,1.342-1.09,2.429-2.426,2.429h-21.133c-1.335,0-2.423-1.087-2.423-2.429v-16.958
	c0-1.336,1.088-2.418,2.423-2.418h21.133c1.336,0,2.426,1.082,2.426,2.418V336.041z"/>
<path fill="#010101" d="M434.076,336.041c0,1.342-1.083,2.429-2.421,2.429H410.52c-1.339,0-2.421-1.087-2.421-2.429v-16.958
	c0-1.336,1.082-2.418,2.421-2.418h21.135c1.338,0,2.421,1.082,2.421,2.418V336.041z"/>
<path fill="#010101" d="M466.583,336.041c0,1.342-1.082,2.429-2.421,2.429h-21.135c-1.338,0-2.423-1.087-2.423-2.429v-16.958
	c0-1.336,1.085-2.418,2.423-2.418h21.135c1.339,0,2.421,1.082,2.421,2.418V336.041z"/>
<path fill="#010101" d="M499.09,336.041c0,1.342-1.086,2.429-2.424,2.429h-21.13c-1.344,0-2.426-1.087-2.426-2.429v-16.958
	c0-1.336,1.082-2.418,2.426-2.418h21.13c1.338,0,2.424,1.082,2.424,2.418V336.041z"/>
<path fill="#010101" d="M531.6,336.041c0,1.342-1.086,2.429-2.424,2.429h-21.133c-1.343,0-2.423-1.087-2.423-2.429v-16.958
	c0-1.336,1.08-2.418,2.423-2.418h21.133c1.338,0,2.424,1.082,2.424,2.418V336.041z"/>
<path fill="#010101" d="M401.571,362.429c0,1.334-1.09,2.419-2.426,2.419h-21.133c-1.335,0-2.423-1.085-2.423-2.419v-16.961
	c0-1.338,1.088-2.429,2.423-2.429h21.133c1.336,0,2.426,1.091,2.426,2.429V362.429z"/>
<path fill="#010101" d="M434.076,362.429c0,1.334-1.083,2.419-2.421,2.419H410.52c-1.339,0-2.421-1.085-2.421-2.419v-16.961
	c0-1.338,1.082-2.429,2.421-2.429h21.135c1.338,0,2.421,1.091,2.421,2.429V362.429z"/>
<path fill="#010101" d="M466.583,362.429c0,1.334-1.082,2.419-2.421,2.419h-21.135c-1.338,0-2.423-1.085-2.423-2.419v-16.961
	c0-1.338,1.085-2.429,2.423-2.429h21.135c1.339,0,2.421,1.091,2.421,2.429V362.429z"/>
<path fill="#010101" d="M531.6,362.429c0,1.334-1.086,2.419-2.424,2.419h-21.133c-1.343,0-2.423-1.085-2.423-2.419v-16.961
	c0-1.338,1.08-2.429,2.423-2.429h21.133c1.338,0,2.424,1.091,2.424,2.429V362.429z"/>
<path fill="#010101" d="M401.571,388.805c0,1.346-1.09,2.429-2.426,2.429h-21.133c-1.335,0-2.423-1.083-2.423-2.429v-16.961
	c0-1.333,1.088-2.416,2.423-2.416h21.133c1.336,0,2.426,1.083,2.426,2.416V388.805z"/>
<path fill="#010101" d="M434.076,388.805c0,1.346-1.083,2.429-2.421,2.429H410.52c-1.339,0-2.421-1.083-2.421-2.429v-16.961
	c0-1.333,1.082-2.416,2.421-2.416h21.135c1.338,0,2.421,1.083,2.421,2.416V388.805z"/>
<path fill="#010101" d="M466.583,388.805c0,1.346-1.082,2.429-2.421,2.429h-21.135c-1.338,0-2.423-1.083-2.423-2.429v-16.961
	c0-1.333,1.085-2.416,2.423-2.416h21.135c1.339,0,2.421,1.083,2.421,2.416V388.805z"/>
<path fill="#010101" d="M531.6,388.805c0,1.346-1.086,2.429-2.424,2.429h-21.133c-1.343,0-2.423-1.083-2.423-2.429v-16.961
	c0-1.333,1.08-2.416,2.423-2.416h21.133c1.338,0,2.424,1.083,2.424,2.416V388.805z"/>
<path fill="#010101" d="M473.111,388.805c0,1.346,1.082,2.429,2.426,2.429h21.13c1.338,0,2.424-1.083,2.424-2.429v-43.337
	c0-1.338-1.086-2.429-2.424-2.429h-21.13c-1.344,0-2.426,1.091-2.426,2.429V388.805z"/>
<path fill="#F2CEA9" d="M398.572,405.91c1.832,4.99,7.367,7.555,12.362,5.717l0,0c4.995-1.837,7.555-7.37,5.715-12.367
	l-34.432-80.151c-1.84-4.992-7.37-7.552-12.368-5.717l0,0c-4.99,1.837-7.546,7.375-5.714,12.365L398.572,405.91z"/>
<path fill="#FFEEDE" d="M369.366,330.68l-1.474-4.021c-1.359-3.698-0.955-8.782,2.751-10.139l0.64-0.235
	c3.695-1.356,7.306,2.249,8.662,5.949l1.469,4.008L369.366,330.68z"/>
<path fill="#F2CEA9" d="M475.903,321.897c-0.865-10.016-7.915-17.591-15.746-16.915l-54.799,4.734
	c-7.835,0.673-13.483,9.343-12.618,19.359l5.75,66.583c0.862,10.019,7.918,17.591,15.743,16.915l54.802-4.732
	c7.835-0.675,13.48-9.345,12.618-19.361L475.903,321.897z"/>
<rect x="410.948" y="404.505" fill="#F2CEA9" width="66" height="32"/>
<path fill="#F2CEA9" d="M403.772,252.525c-0.42-4.835-4.676-8.413-9.51-7.997l0,0c-4.839,0.417-8.419,4.678-7.997,9.508
	l12.468,144.442c0.417,4.832,4.681,8.414,9.507,7.997l0,0c4.839-0.417,8.417-4.673,7.999-9.507L403.772,252.525z"/>
<path fill="#FFEEDE" d="M401.678,253.808c-0.261-3.018-3.252-5.229-6.674-4.935l-0.731,0.064c-3.422,0.294-5.985,2.984-5.728,6.009
	l0.194,2.188c0.254,3.02,3.245,5.229,6.672,4.934l0.729-0.064c3.418-0.295,5.982-2.984,5.725-6.005L401.678,253.808z"/>
<path fill="#F2CEA9" d="M429.999,300.972c-0.414-4.834-4.672-8.417-9.504-7.999l0,0c-4.839,0.417-8.422,4.678-8.004,9.512
	l8.124,94.107c0.417,4.831,4.679,8.414,9.51,7.997l0,0c4.837-0.417,8.417-4.676,8.005-9.515L429.999,300.972z"/>
<path fill="#F2CEA9" d="M451.883,299.086c-0.417-4.839-4.675-8.422-9.506-8.003l0,0c-4.832,0.42-8.417,4.676-8,9.51l8.128,94.105
	c0.414,4.837,4.67,8.417,9.507,8.005l0,0c4.834-0.423,8.416-4.684,7.999-9.518L451.883,299.086z"/>
<path fill="#F2CEA9" d="M473.768,297.193c-0.412-4.832-4.678-8.414-9.506-8l0,0c-4.834,0.42-8.412,4.678-7.997,9.515l8.119,94.103
	c0.423,4.831,4.681,8.417,9.512,7.997l0,0c4.834-0.415,8.417-4.673,8.003-9.507L473.768,297.193z"/>
<rect x="394.948" y="446.505" fill="#4D4D4D" width="95" height="168"/>
<rect x="444.948" y="446.505" fill="#333333" width="45" height="168"/>
<rect x="402.948" y="433.505" fill="#FFFFFF" width="84" height="13"/>
<path fill="#15B0BF" d="M756.775,470.541v1.136c0.753,0.085,1.402,0.233,1.938,0.466c0.532,0.228,1,0.584,1.397,1.049
	c0.319,0.361,0.567,0.732,0.739,1.108c0.166,0.374,0.256,0.727,0.256,1.042c0,0.348-0.125,0.647-0.384,0.916
	c-0.256,0.245-0.573,0.376-0.935,0.376c-0.683,0-1.128-0.371-1.338-1.113c-0.228-0.875-0.783-1.453-1.674-1.75v4.386
	c0.873,0.233,1.566,0.45,2.088,0.647c0.513,0.192,0.971,0.479,1.377,0.854c0.438,0.377,0.768,0.848,1.003,1.38
	c0.241,0.534,0.352,1.123,0.352,1.761c0,0.795-0.188,1.553-0.556,2.244c-0.379,0.698-0.935,1.271-1.658,1.717
	c-0.729,0.436-1.603,0.701-2.605,0.78v1.019c0,0.415-0.036,0.712-0.12,0.906c-0.074,0.187-0.256,0.286-0.527,0.286
	c-0.256,0-0.438-0.079-0.534-0.237c-0.095-0.148-0.151-0.392-0.151-0.712v-1.236c-0.819-0.089-1.533-0.286-2.149-0.578
	c-0.622-0.297-1.126-0.657-1.538-1.093c-0.407-0.445-0.709-0.905-0.911-1.379c-0.197-0.466-0.292-0.937-0.292-1.385
	c0-0.338,0.134-0.64,0.396-0.911c0.256-0.271,0.581-0.404,0.979-0.404c0.316,0,0.583,0.064,0.809,0.218
	c0.209,0.148,0.36,0.351,0.442,0.622c0.189,0.573,0.363,1.008,0.496,1.315c0.144,0.302,0.356,0.588,0.643,0.839
	c0.276,0.254,0.663,0.44,1.126,0.581v-4.896c-0.941-0.259-1.723-0.55-2.354-0.864c-0.635-0.328-1.146-0.778-1.535-1.367
	c-0.392-0.588-0.589-1.344-0.589-2.274c0-1.2,0.384-2.196,1.154-2.966c0.766-0.766,1.871-1.216,3.324-1.347v-1.11
	c0-0.589,0.218-0.886,0.663-0.886C756.557,469.68,756.775,469.967,756.775,470.541z M755.442,477.759v-4.025
	c-0.586,0.174-1.044,0.407-1.379,0.693c-0.328,0.287-0.494,0.722-0.494,1.3c0,0.559,0.158,0.98,0.466,1.257
	C754.344,477.27,754.81,477.527,755.442,477.759z M756.775,480.884v4.608c0.709-0.144,1.259-0.42,1.65-0.85
	c0.377-0.43,0.571-0.927,0.571-1.5c0-0.606-0.188-1.077-0.565-1.412C758.065,481.398,757.507,481.112,756.775,480.884z"/>
<polygon fill="#15B0BF" points="712.192,483.504 709.498,480.81 719.761,470.545 722.458,473.24 712.192,483.504 "/>
<path fill="#15B0BF" d="M709.792,485.172l-1.95-1.955l2.304-18.872l10.886-3.76l3.943-3.936l11.388,11.383l-3.94,3.94l-3.765,10.884
	L709.792,485.172L709.792,485.172z M713.64,467.172l-1.694,13.896l13.889-1.701l3.27-9.464l1.868-1.87l-6.003-5.996l-1.865,1.863
	L713.64,467.172L713.64,467.172z"/>
<path fill="#15B0BF" d="M735.005,471.362l-13.363-13.36l1.454-1.347c11.51-10.65,23.016-21.312,34.526-31.97l6.901-6.395
	c3.024-2.759,7.754-3.02,10.21-0.568l0.559,0.558c2.562,2.562,2.313,7.037-0.565,10.192l-2.536,2.733
	c-11.948,12.9-23.901,25.803-35.845,38.702L735.005,471.362L735.005,471.362z M727.139,458.109l7.756,7.754
	c11.496-12.417,22.998-24.828,34.501-37.247l2.528-2.726c1.44-1.576,1.75-3.836,0.668-4.915l-0.581-0.584
	c-0.504-0.504-1.23-0.616-1.745-0.616c-1.088,0-2.241,0.479-3.163,1.32l-6.892,6.382
	C749.188,437.693,738.166,447.903,727.139,458.109L727.139,458.109z"/>
<path fill="#15B0BF" d="M762.206,495.952h-59.27c-1.052,0-1.906-0.853-1.906-1.904c0-1.055,0.854-1.909,1.906-1.909h59.27
	c1.052,0,1.906,0.854,1.906,1.909C764.112,495.099,763.257,495.952,762.206,495.952L762.206,495.952z"/>
<path fill="#15B0BF" d="M776.18,508.163h-86.257c-1.052,0-1.904-0.85-1.904-1.903v-52.04c0-1.055,0.853-1.909,1.904-1.909h38.618
	c1.055,0,1.906,0.854,1.906,1.909c0,1.052-0.852,1.903-1.906,1.903H691.83v48.23h82.444v-48.23h-25.989
	c-1.055,0-1.907-0.852-1.907-1.903c0-1.055,0.853-1.909,1.907-1.909h27.896c1.055,0,1.906,0.854,1.906,1.909v52.04
	C778.086,507.313,777.235,508.163,776.18,508.163L776.18,508.163z"/>
<path fill="#15B0BF" d="M314.633,181.349c0,23.513-19.062,42.577-42.577,42.577c-23.512,0-42.577-19.063-42.577-42.577
	c0-23.512,19.065-42.575,42.577-42.575C295.572,138.774,314.633,157.836,314.633,181.349z"/>
<path fill="#1695A4" d="M272.056,138.774c23.516,0,42.577,19.063,42.577,42.575c0,23.513-19.062,42.577-42.577,42.577"/>
<path fill="#FFFFFF" d="M305.172,181.349c0,18.289-14.826,33.113-33.116,33.113c-18.286,0-33.116-14.824-33.116-33.113
	c0-18.288,14.83-33.115,33.116-33.115C290.346,148.233,305.172,163.061,305.172,181.349z"/>
<path fill="#D1ECFB" d="M242.487,183.715c0-18.289,14.827-33.117,33.119-33.117c6.031,0,11.68,1.62,16.552,4.438
	c-5.579-4.265-12.542-6.803-20.102-6.803c-18.286,0-33.116,14.827-33.116,33.115c0,12.259,6.669,22.953,16.567,28.676
	C247.595,203.974,242.487,194.444,242.487,183.715z"/>
<path fill="#0E303F" d="M277.968,181.349c0,3.265-2.644,5.914-5.912,5.914c-3.263,0-5.913-2.648-5.913-5.914
	c0-3.267,2.65-5.914,5.913-5.914C275.325,175.435,277.968,178.082,277.968,181.349z"/>
<path fill="#0E303F" d="M286.136,157.435c-0.082,0-0.164-0.021-0.238-0.064c-0.228-0.132-0.307-0.425-0.174-0.653l0.911-1.576
	c0.131-0.229,0.422-0.309,0.652-0.175c0.229,0.133,0.31,0.425,0.174,0.652l-0.91,1.577
	C286.461,157.349,286.3,157.435,286.136,157.435L286.136,157.435z"/>
<path fill="#0E303F" d="M257.058,207.802c-0.079,0-0.161-0.021-0.235-0.064c-0.228-0.13-0.31-0.423-0.177-0.652l0.908-1.579
	c0.131-0.23,0.42-0.308,0.653-0.177c0.228,0.132,0.305,0.424,0.176,0.653l-0.908,1.579
	C257.386,207.716,257.227,207.802,257.058,207.802L257.058,207.802z"/>
<path fill="#0E303F" d="M298.023,196.815c-0.082,0-0.164-0.019-0.24-0.063l-1.566-0.902c-0.228-0.133-0.305-0.424-0.174-0.653
	c0.133-0.229,0.425-0.307,0.652-0.176l1.568,0.903c0.226,0.133,0.305,0.425,0.175,0.654
	C298.348,196.731,298.187,196.815,298.023,196.815L298.023,196.815z"/>
<path fill="#0E303F" d="M247.674,167.742c-0.082,0-0.164-0.021-0.238-0.063l-1.586-0.907c-0.229-0.131-0.308-0.422-0.175-0.651
	c0.131-0.23,0.423-0.309,0.653-0.178l1.584,0.907c0.228,0.132,0.307,0.422,0.176,0.651C248,167.656,247.84,167.742,247.674,167.742
	L247.674,167.742z"/>
<path fill="#0E303F" d="M257.977,157.435c-0.166,0-0.328-0.086-0.415-0.241l-0.903-1.575c-0.133-0.229-0.051-0.52,0.177-0.652
	c0.228-0.13,0.52-0.054,0.65,0.175l0.905,1.578c0.134,0.229,0.052,0.521-0.176,0.652
	C258.138,157.414,258.059,157.435,257.977,157.435L257.977,157.435z"/>
<path fill="#0E303F" d="M287.065,207.802c-0.163,0-0.322-0.086-0.414-0.238l-0.916-1.582c-0.134-0.225-0.057-0.52,0.171-0.653
	c0.228-0.133,0.52-0.056,0.655,0.174l0.919,1.58c0.133,0.228,0.054,0.52-0.174,0.652
	C287.232,207.781,287.147,207.802,287.065,207.802L287.065,207.802z"/>
<path fill="#0E303F" d="M246.09,196.815c-0.166,0-0.327-0.085-0.415-0.239c-0.133-0.23-0.051-0.522,0.177-0.652l1.584-0.903
	c0.229-0.13,0.524-0.05,0.652,0.179c0.131,0.229,0.052,0.522-0.179,0.651l-1.584,0.903
	C246.251,196.796,246.172,196.815,246.09,196.815L246.09,196.815z"/>
<path fill="#0E303F" d="M296.455,167.742c-0.164,0-0.323-0.086-0.41-0.238c-0.133-0.228-0.056-0.521,0.172-0.653l1.566-0.907
	c0.229-0.133,0.521-0.054,0.655,0.175c0.13,0.228,0.054,0.52-0.175,0.653l-1.568,0.906
	C296.621,167.722,296.539,167.742,296.455,167.742L296.455,167.742z"/>
<path fill="#0E303F" d="M243.892,181.823L243.892,181.823l-1.819-0.002c-0.267,0-0.479-0.214-0.479-0.478s0.215-0.477,0.479-0.477
	l0,0l1.819,0.002c0.264,0,0.476,0.214,0.476,0.479C244.368,181.609,244.153,181.823,243.892,181.823L243.892,181.823z"/>
<path fill="#0E303F" d="M300.226,181.823c-0.266,0-0.476-0.212-0.479-0.476c0-0.264,0.213-0.479,0.479-0.479l1.827-0.006h0.003
	c0.264,0,0.476,0.213,0.479,0.476c0,0.265-0.215,0.479-0.479,0.479L300.226,181.823L300.226,181.823L300.226,181.823z"/>
<path fill="#0E303F" d="M272.054,211.812c-0.003,0-0.003,0-0.003,0c-0.264,0-0.476-0.215-0.476-0.479l0.01-1.827
	c0.003-0.262,0.215-0.475,0.479-0.475l0,0c0.269,0,0.479,0.216,0.479,0.48l-0.01,1.827
	C272.53,211.601,272.318,211.812,272.054,211.812L272.054,211.812z"/>
<path fill="#0E303F" d="M272.056,153.653c-0.263,0-0.476-0.213-0.476-0.477v-1.812c0-0.263,0.213-0.477,0.476-0.477
	c0.264,0,0.479,0.214,0.479,0.477v1.812C272.536,153.44,272.32,153.653,272.056,153.653L272.056,153.653z"/>
<path fill="#0E303F" d="M272.064,182.926c-0.872,0-1.576-0.707-1.576-1.578V157.88c0-0.873,0.704-1.579,1.576-1.579
	c0.87,0,1.574,0.707,1.574,1.579v23.469C273.638,182.22,272.934,182.926,272.064,182.926L272.064,182.926z"/>
<path fill="#0E303F" d="M261.79,193.197c-0.404,0-0.806-0.154-1.115-0.461c-0.617-0.617-0.617-1.614,0-2.23l9.867-9.87
	c0.617-0.614,1.612-0.614,2.229-0.001c0.616,0.618,0.616,1.615,0,2.23l-9.868,9.87C262.596,193.043,262.192,193.197,261.79,193.197
	L261.79,193.197z"/>
<circle fill="#FFFFFF" cx="272.059" cy="181.349" r="3.646"/>
<path fill="#FEC00F" d="M273.864,181.349c0,0.998-0.81,1.807-1.808,1.807c-0.992,0-1.807-0.809-1.807-1.807
	c0-0.997,0.814-1.808,1.807-1.808C273.054,179.541,273.864,180.352,273.864,181.349z"/>
<path fill="#FEC00F" d="M272.064,182.137c-0.34,0-0.652-0.219-0.755-0.561c-0.125-0.415,0.107-0.854,0.527-0.982l20.462-6.182
	c0.415-0.126,0.854,0.11,0.982,0.529c0.126,0.416-0.109,0.857-0.526,0.981l-20.462,6.183
	C272.215,182.127,272.138,182.137,272.064,182.137L272.064,182.137z"/>
<path fill="#15B0BF" d="M534.801,93.464h6.341c0.409-3.397,1.195-6.453,2.354-9.158c1.159-2.705,2.628-4.999,4.406-6.877
	c1.776-1.885,3.839-3.328,6.186-4.332c2.344-1.003,4.931-1.507,7.77-1.507c1.647,0,3.173,0.148,4.58,0.444
	c1.402,0.297,2.705,0.728,3.902,1.296c1.198,0.568,2.318,1.271,3.363,2.106c1.044,0.835,2.042,1.811,2.993,2.917l-1.194,1.355
	c-0.105,0.129-0.221,0.238-0.351,0.327c-0.128,0.089-0.297,0.138-0.502,0.138c-0.207,0-0.453-0.138-0.734-0.41
	c-0.284-0.268-0.645-0.599-1.082-0.984c-0.438-0.386-0.973-0.816-1.604-1.296c-0.63-0.475-1.38-0.904-2.242-1.294
	c-0.862-0.387-1.868-0.713-3.015-0.984c-1.146-0.272-2.467-0.405-3.961-0.405c-2.318,0-4.445,0.405-6.377,1.215
	c-1.935,0.812-3.626,2.002-5.083,3.575c-1.456,1.572-2.661,3.521-3.613,5.839c-0.954,2.32-1.625,4.999-2.009,8.036h23.267v1.162
	c0,0.282-0.097,0.535-0.289,0.752c-0.197,0.223-0.509,0.33-0.946,0.33h-22.264c-0.077,1.211-0.118,2.463-0.118,3.749
	c0,0.539,0.006,1.063,0.021,1.567c0.013,0.499,0.033,1.008,0.057,1.522h19.983v1.162c0,0.307-0.103,0.575-0.307,0.792
	c-0.21,0.217-0.505,0.33-0.891,0.33H544.85c0.335,3.195,0.965,6.003,1.894,8.427c0.929,2.417,2.114,4.445,3.558,6.066
	c1.44,1.623,3.129,2.848,5.064,3.67c1.929,0.825,4.056,1.241,6.374,1.241c1.597,0,3.01-0.158,4.232-0.465
	c1.224-0.311,2.301-0.701,3.228-1.181c0.929-0.475,1.725-0.989,2.397-1.543c0.67-0.554,1.236-1.074,1.699-1.548
	s0.857-0.87,1.18-1.176c0.319-0.313,0.599-0.466,0.829-0.466c0.259,0,0.504,0.114,0.734,0.347l1.433,1.355
	c-0.929,1.181-1.935,2.26-3.017,3.223c-1.08,0.97-2.28,1.795-3.593,2.479c-1.315,0.682-2.743,1.21-4.292,1.582
	c-1.545,0.376-3.222,0.564-5.023,0.564c-2.912,0-5.553-0.504-7.925-1.508c-2.37-1.008-4.425-2.477-6.162-4.405
	c-1.74-1.934-3.152-4.297-4.232-7.096c-1.083-2.793-1.805-5.983-2.165-9.563h-6.262v-2.284h6.067
	c-0.023-0.514-0.044-1.023-0.057-1.522c-0.016-0.504-0.021-1.029-0.021-1.567c0-1.262,0.038-2.512,0.118-3.749h-6.108V93.464z"/>
<path fill="#15B0BF" d="M351.197,465.46h13.371l-16.309-30.88h3.053c0.67,0,1.172,0.323,1.507,0.965l13.374,25.703
	c0.204,0.515,0.392,0.998,0.558,1.448c0.169,0.455,0.317,0.896,0.445,1.336c0.232-0.853,0.568-1.781,1.006-2.784l13.335-25.703
	c0.128-0.281,0.314-0.514,0.561-0.695c0.245-0.18,0.547-0.27,0.908-0.27h3.091l-16.35,30.88h13.415v2.244h-14.149v4.561h14.149
	v2.239h-14.149v14.766h-3.669v-14.766h-14.146v-2.239h14.146v-4.561h-14.146V465.46z"/>
<path fill="#EF6A54" d="M146.872,333.49c0-3.081-1.226-5.855-3.214-7.902c0.092,0.606,0.187,1.213,0.187,1.84
	c0,4.379-2.505,8.133-6.134,10.036c-4.304-19.118-25.191-33.615-50.321-33.615c-7.526,0-14.658,1.303-21.083,3.637
	c-2.091-2.612-5.251-4.307-8.854-4.307c-1.925,0-3.708,0.524-5.295,1.371v10.566c-6.656,5.067-11.615,11.547-14.103,18.848h-2.951
	c-3.764,0-6.825,3.053-6.825,6.816v7.962c0,3.764,3.061,6.816,6.825,6.816h2.951c2.487,7.302,7.447,13.783,14.103,18.843v12.989
	c0,3.757,3.053,6.817,6.82,6.817h7.954c3.764,0,6.822-3.061,6.822-6.817v-3.196c4.34,0.965,8.913,1.489,13.637,1.489
	c5.556,0,10.902-0.724,15.91-2.031v3.738c0,3.757,3.055,6.817,6.82,6.817h7.969c3.759,0,6.81-3.061,6.81-6.817v-14.816
	c8.465-7.304,13.64-17.069,13.64-27.81c0-0.128-0.008-0.242-0.008-0.363C143.328,343.073,146.872,338.72,146.872,333.49z"/>
<path fill="#C94B3A" d="M53.547,331.813c-1.65,2.122-3.805,3.187-4.816,2.406c-1.008-0.796-0.474-3.143,1.182-5.257
	c1.653-2.111,3.813-3.19,4.819-2.402C55.735,327.348,55.211,329.708,53.547,331.813z"/>
<path fill="#C94B3A" d="M113.04,325.172c-0.451,0-0.909-0.112-1.333-0.343c-9.12-5-20.334-7.262-31.573-6.354
	c-1.504,0.109-2.861-1.014-2.981-2.541c-0.128-1.528,1.008-2.864,2.539-2.989c12.309-0.99,24.623,1.505,34.685,7.02
	c1.341,0.737,1.833,2.423,1.098,3.767C114.969,324.654,114.017,325.172,113.04,325.172L113.04,325.172z"/>
<path fill="#FEC00F" d="M122.393,294.693c0,13.018-10.553,23.573-23.576,23.573c-13.015,0-23.568-10.556-23.568-23.573
	s10.553-23.572,23.568-23.572C111.839,271.121,122.393,281.675,122.393,294.693z"/>
<path fill="#F99B1C" d="M121.671,294.693c0,12.618-10.231,22.852-22.854,22.852c-12.621,0-22.85-10.233-22.85-22.852
	c0-12.624,10.229-22.85,22.85-22.85C111.44,271.843,121.671,282.069,121.671,294.693z"/>
<path fill="#FEC00F" d="M116.814,294.693c0,9.937-8.053,17.992-17.998,17.992c-9.939,0-17.995-8.056-17.995-17.992
	c0-9.938,8.056-17.998,17.995-17.998C108.761,276.695,116.814,284.755,116.814,294.693z"/>
<path fill="#F99B1C" d="M97.55,305.261c-1.188-0.11-2.283-0.404-3.263-0.888c-0.985-0.474-1.83-1.091-2.546-1.83l0.786-1.21
	c0.072-0.118,0.176-0.205,0.297-0.267c0.13-0.077,0.269-0.112,0.404-0.112c0.187,0,0.399,0.097,0.632,0.284
	c0.243,0.191,0.533,0.401,0.883,0.647c0.345,0.237,0.752,0.471,1.238,0.703c0.474,0.223,1.052,0.376,1.725,0.458l0.548-7.876
	c-0.686-0.205-1.369-0.436-2.037-0.701c-0.673-0.262-1.264-0.604-1.799-1.024c-0.527-0.425-0.952-0.949-1.272-1.592
	c-0.322-0.64-0.481-1.44-0.481-2.405c0-0.722,0.143-1.428,0.419-2.116c0.287-0.688,0.694-1.302,1.234-1.835
	c0.532-0.537,1.203-0.977,1.996-1.314c0.789-0.338,1.699-0.518,2.726-0.518l0.146-2.165c0.021-0.187,0.095-0.353,0.223-0.501
	c0.13-0.148,0.304-0.221,0.52-0.221h0.98l-0.202,2.936c1.031,0.131,1.927,0.392,2.682,0.801c0.75,0.404,1.42,0.896,2.017,1.467
	l-0.637,0.977c-0.2,0.3-0.427,0.448-0.688,0.448c-0.138,0-0.302-0.066-0.507-0.189c-0.202-0.122-0.448-0.263-0.739-0.43
	c-0.284-0.159-0.617-0.322-0.988-0.486c-0.376-0.163-0.809-0.276-1.287-0.351l-0.497,7.178c0.711,0.216,1.407,0.461,2.106,0.717
	c0.694,0.251,1.313,0.589,1.868,0.998c0.555,0.404,1.006,0.911,1.341,1.525c0.348,0.609,0.517,1.371,0.517,2.282
	c0,0.891-0.146,1.728-0.448,2.514c-0.297,0.788-0.729,1.479-1.295,2.067c-0.568,0.596-1.267,1.082-2.088,1.453
	c-0.832,0.371-1.773,0.559-2.83,0.559l-0.177,2.653c-0.015,0.187-0.092,0.355-0.233,0.499c-0.133,0.144-0.296,0.215-0.509,0.215
	h-0.978L97.55,305.261z M95.154,289.199c0,0.476,0.084,0.891,0.251,1.235c0.167,0.356,0.402,0.663,0.699,0.929
	c0.299,0.271,0.642,0.502,1.036,0.701c0.394,0.194,0.829,0.374,1.287,0.532l0.451-6.688c-0.64,0.061-1.198,0.189-1.671,0.383
	c-0.463,0.2-0.852,0.445-1.159,0.742c-0.297,0.3-0.524,0.633-0.67,1.004C95.224,288.408,95.154,288.792,95.154,289.199z
	 M103.387,299.042c0-0.488-0.092-0.913-0.279-1.271c-0.187-0.355-0.433-0.66-0.747-0.919c-0.315-0.259-0.684-0.479-1.113-0.668
	c-0.42-0.189-0.878-0.36-1.359-0.521l-0.512,7.385c0.647-0.056,1.218-0.199,1.72-0.425c0.494-0.218,0.914-0.504,1.256-0.847
	c0.338-0.346,0.599-0.75,0.77-1.211C103.3,300.102,103.387,299.6,103.387,299.042z"/>
<path fill="#F48C7D" d="M28.28,345.092v3.649c0,3.764,3.061,6.816,6.825,6.816h2.951c2.487,7.302,7.447,13.783,14.103,18.843v12.989
	c0,3.757,3.053,6.817,6.82,6.817h7.954c3.764,0,6.822-3.061,6.822-6.817v-3.196c4.34,0.965,8.913,1.489,13.637,1.489
	c5.556,0,10.902-0.724,15.91-2.031v3.738c0,3.757,3.055,6.817,6.82,6.817h7.969c3.759,0,6.81-3.061,6.81-6.817v-14.816
	c8.378-7.225,13.527-16.874,13.632-27.481H28.28z"/>
<rect x="584.461" y="480.04" fill="#F0CA67" width="9.128" height="3.099"/>
<path fill="#F0CA67" d="M579.839,452.128c-0.512,1.681-0.79,3.467-0.79,5.322c0,7.239,4.214,13.469,10.269,16.28
	c6.055-2.812,10.268-9.041,10.268-16.28c0-1.855-0.279-3.642-0.794-5.322H579.839z"/>
<path fill="#F4DA80" d="M584.937,470.748l-1.082-0.118c-7.468-0.801-13.1-7.546-13.1-15.691c0-0.273,0.01-0.563,0.028-0.908
	l0.048-0.927h14.105V470.748L584.937,470.748z M572.712,455.061c0.052,6.684,4.379,12.265,10.27,13.458v-13.458H572.712
	L572.712,455.061z"/>
<path fill="#F0CA67" d="M593.7,470.748v-17.645h14.107l0.049,0.929c0.016,0.315,0.022,0.612,0.022,0.906
	c0,8.146-5.632,14.891-13.097,15.691L593.7,470.748L593.7,470.748z M595.655,455.061v13.458c5.891-1.193,10.218-6.774,10.267-13.458
	H595.655L595.655,455.061z"/>
<rect x="587.557" y="469.975" fill="#F0CA67" width="2.934" height="12.224"/>
<path fill="#F0CA67" d="M596.993,483.217v-0.979c0-0.647-0.44-1.18-0.978-1.18h-13.979c-0.538,0-0.978,0.532-0.978,1.18v0.979
	H596.993z"/>
<path fill="#F4DA80" d="M579.55,452.128c-0.512,1.681-0.793,3.467-0.793,5.322c0,6.639,3.547,12.417,8.8,15.5v7.089h1.356v-10.064
	v-17.847H579.55z"/>
<path fill="#F4DA80" d="M584.461,481.058h-2.426c-0.538,0-0.978,0.532-0.978,1.18v0.979h7.855v-2.159h-1.356H584.461z"/>
<rect x="577.838" y="483.102" fill="#1695A4" width="22.371" height="9.848"/>
<rect x="580.464" y="485.447" fill="#F0CA67" width="17.119" height="5.158"/>
<rect x="576.953" y="492.5" fill="#15B0BF" width="24.143" height="2.387"/>
<polygon fill="#F4DA80" points="263.413,90.456 278.933,78.953 278.933,84.999 315.14,84.999 315.14,95.921 278.933,95.921 
	278.933,101.956 "/>
<polygon fill="#F4DA80" points="315.135,63.191 299.62,74.691 299.62,68.649 263.413,68.649 263.413,57.728 299.62,57.728 
	299.62,51.686 "/>
<path fill="#F2CEA9" d="M293.678,312.633c0,0-5.525-19.761-6.58-25.536c-1.054-5.773-1.44-11.063-2.421-12.48
	c-0.984-1.407-12.943-23.059-16.828-33.183c0,0-8.045-2.81-7.93,6.83c0.109,9.644,6.154,20.393,10.32,25.726
	C270.24,273.99,283.496,312.908,293.678,312.633z"/>
<path fill="#F2CEA9" d="M297.511,317.24c0,0-2.224-15.282-2.135-17.801c0.09-2.518,1.065-7.303,0.331-9.281
	c-0.732-1.979-3.412-10.448-4.223-32.737c0,0-6.855-3.588-8.972,2.999c-2.111,6.592-1.331,12.468-1.331,12.468
	S288.483,313.529,297.511,317.24z"/>
<path fill="#F2CEA9" d="M297.964,433.704l2.254-13.412c0,0,1.584-4.555,2.787-8.419c1.203-3.859-4.281-9.382-3.736-14.691
	c0.545-5.305,3.675-73.001-1.758-79.941c-5.436-6.939-14.028-14.704-20.196-30.9c-6.167-16.198-7.674-13.765-13.616-16.462
	c-5.937-2.7-27.583-13.629-27.583-13.629s-13.515,15.589,10.604,19.428c0,0,6.701,6.835,14.197,10.687
	c0,0,6.684,21.432,10.627,26.567c0,0-12.503-6.472-16.945-12.137c-4.445-5.666-10.492-5.021-13.788-4.279
	c-3.293,0.745-9.261,3.97-13.937,4.665c-4.667,0.691-8.826,1.402-10.431,3.066c-1.607,1.665-16.687,19.197-16.687,19.197
	s2.851,6.813,10.878,3.657c8.033-3.158,11.899-10.244,11.899-10.244s12.424-0.934,17.719-4.701c0,0,9.384,11.864,13.604,14.254
	c0,0,0.898,8.637,7.372,15.234c0,0-13.314,11.397-22.992,7.784c-9.684-3.616-23.945-18.755-33.51-20.644
	c-9.571-1.892-12.089,1.118-11.861,4.394c0.23,3.278,13.304,12.867,17.281,17.31c3.972,4.444,16.71,13.85,18.023,20.437
	c1.318,6.587-2.574,23.998,27.32,39.697c0,0,2.323,12.061-1.11,21.526L297.964,433.704z"/>
<path fill="#FAD5B6" d="M245.958,261.191c0,0-2.651,2.427-5.723,1.747c-3.075-0.686-6.203-3.983-6.203-3.983l2.084-2.706
	L245.958,261.191z"/>
<path fill="#FAD5B6" d="M201.382,325.749c0,0,11.142-4.716,4.898-9.873l-6.523,7.567L201.382,325.749z"/>
<path fill="#FAD5B6" d="M200.205,341.489c0,0,2.227-2.638,0.217-6.149c-1.999-3.513-7.495-3.421-7.495-3.421
	S192.226,334.45,200.205,341.489z"/>
<path fill="#FFD71C" d="M185.398,347.111c-13.348,0-24.172-10.821-24.172-24.175c0-13.348,10.825-24.162,24.172-24.162
	c13.343,0,24.167,10.814,24.167,24.162C209.565,336.29,198.741,347.111,185.398,347.111z"/>
<path fill="#FFE54E" d="M185.398,340.752c-9.837,0-17.813-7.975-17.813-17.816c0-9.831,7.976-17.806,17.813-17.806
	c9.834,0,17.809,7.975,17.809,17.806C203.207,332.778,195.232,340.752,185.398,340.752z"/>
<path fill="#F9BE2C" d="M176.208,321.756c0.146-1.361,0.448-2.679,0.911-3.953c0.461-1.28,1.067-2.444,1.819-3.491l3.667,2.482
	c-0.625,0.881-1.124,1.743-1.49,2.58c-0.368,0.831-0.624,1.686-0.77,2.549h3.309c0.253-1.101,0.55-2.073,0.88-2.913
	c0.333-0.831,0.729-1.527,1.198-2.09c0.473-0.566,1.019-0.985,1.643-1.27c0.629-0.284,1.369-0.43,2.234-0.43h0.054
	c0.811,0,1.553,0.148,2.236,0.442c0.681,0.294,1.272,0.717,1.779,1.282c0.506,0.561,0.914,1.251,1.226,2.064
	c0.313,0.816,0.504,1.753,0.581,2.8h1.574v2.871h-1.656c-0.13,1.139-0.379,2.186-0.747,3.141c-0.366,0.957-0.834,1.848-1.408,2.679
	l-3.692-2.262c0.402-0.573,0.739-1.172,1.019-1.805c0.273-0.637,0.483-1.267,0.634-1.891h-3.199
	c-0.258,1.103-0.555,2.063-0.896,2.876c-0.343,0.821-0.745,1.51-1.215,2.058c-0.466,0.556-1.021,0.968-1.666,1.244
	c-0.643,0.276-1.39,0.414-2.237,0.414h-0.054c-0.844,0-1.604-0.158-2.275-0.468c-0.673-0.315-1.259-0.761-1.753-1.328
	c-0.497-0.573-0.891-1.252-1.185-2.056c-0.292-0.798-0.484-1.684-0.576-2.658h-2.705v-2.869H176.208z M191.458,321.949
	c-0.054-0.679-0.208-1.159-0.453-1.448c-0.248-0.282-0.555-0.423-0.926-0.423h-0.059c-0.363,0-0.663,0.123-0.89,0.369
	c-0.23,0.25-0.448,0.749-0.647,1.502H191.458z M180.178,324.515c0.128,1.23,0.599,1.848,1.407,1.848h0.054
	c0.371,0,0.673-0.131,0.913-0.387c0.238-0.256,0.458-0.744,0.661-1.461H180.178z"/>
<radialGradient id="SVGID_1_" cx="568.8872" cy="638.02" r="11.6177" gradientTransform="matrix(0 1 -1 0 836.7324 -236.2231)" gradientUnits="userSpaceOnUse">
	<stop  offset="0" style="stop-color:#F74E1E"/>
	<stop  offset="0.1047" style="stop-color:#C63F18;stop-opacity:0.8953"/>
	<stop  offset="0.2318" style="stop-color:#922E12;stop-opacity:0.7682"/>
	<stop  offset="0.361" style="stop-color:#65200C;stop-opacity:0.639"/>
	<stop  offset="0.4899" style="stop-color:#411408;stop-opacity:0.5101"/>
	<stop  offset="0.6184" style="stop-color:#240B04;stop-opacity:0.3816"/>
	<stop  offset="0.7464" style="stop-color:#100502;stop-opacity:0.2536"/>
	<stop  offset="0.8738" style="stop-color:#040100;stop-opacity:0.1262"/>
	<stop  offset="1" style="stop-color:#000000;stop-opacity:0"/>
</radialGradient>
<path fill="url(#SVGID_1_)" d="M198.715,344.281c-6.421,0-11.621-5.202-11.621-11.615c0-6.418,5.2-11.618,11.621-11.618
	c6.413,0,11.615,5.2,11.615,11.618C210.331,339.079,205.128,344.281,198.715,344.281z"/>
<path fill="#F9CAA4" d="M209.617,346.689c0.197-0.379,0.542-1.028,0.625-1.195c1.85-3.736,3.534-7.572,5.057-11.467
	c-3.806-2.59-7.442-4.627-10.571-5.243c-9.571-1.892-12.089,1.118-11.861,4.394c0.205,2.896,10.446,10.723,15.562,15.574
	C208.829,348.068,209.23,347.382,209.617,346.689z"/>
<path fill="#FAD5B6" d="M200.205,341.489c0,0,2.227-2.638,0.217-6.149c-1.999-3.513-7.495-3.421-7.495-3.421
	S192.226,334.45,200.205,341.489z"/>
<rect x="224.948" y="444.505" fill="#4D4D4D" width="94" height="167"/>
<rect x="274.948" y="444.505" fill="#333333" width="44" height="167"/>
<rect x="232.948" y="431.505" fill="#FFFFFF" width="84" height="13"/>
<path fill="#F2CEA9" d="M585.078,312.633c0,0,5.525-19.761,6.579-25.536c1.055-5.773,1.441-11.063,2.421-12.48
	c0.985-1.407,12.944-23.059,16.828-33.183c0,0,8.046-2.81,7.931,6.83c-0.11,9.644-6.154,20.393-10.32,25.726
	C608.516,273.99,595.26,312.908,585.078,312.633z"/>
<path fill="#F2CEA9" d="M581.245,317.24c0,0,2.224-15.282,2.134-17.801c-0.089-2.518-1.064-7.303-0.33-9.281
	c0.732-1.979,3.411-10.448,4.223-32.737c0,0,6.855-3.588,8.972,2.999c2.111,6.592,1.331,12.468,1.331,12.468
	S590.273,313.529,581.245,317.24z"/>
<path fill="#F2CEA9" d="M580.792,433.704l-2.254-13.412c0,0-1.585-4.555-2.787-8.419c-1.203-3.859,4.281-9.382,3.736-14.691
	c-0.545-5.305-3.675-73.001,1.758-79.941c5.436-6.939,14.028-14.704,20.195-30.9c6.168-16.198,7.675-13.765,13.617-16.462
	c5.937-2.7,27.583-13.629,27.583-13.629s13.515,15.589-10.604,19.428c0,0-6.702,6.835-14.197,10.687c0,0-6.684,21.432-10.628,26.567
	c0,0,12.504-6.472,16.946-12.137c4.445-5.666,10.492-5.021,13.788-4.279c3.293,0.745,9.261,3.97,13.937,4.665
	c4.667,0.691,8.826,1.402,10.431,3.066c1.606,1.665,16.687,19.197,16.687,19.197s-2.851,6.813-10.878,3.657
	c-8.033-3.158-11.899-10.244-11.899-10.244s-12.424-0.934-17.719-4.701c0,0-9.384,11.864-13.604,14.254
	c0,0-0.898,8.637-7.373,15.234c0,0,13.314,11.397,22.993,7.784c9.684-3.616,23.944-18.755,33.511-20.644
	c9.57-1.892,12.088,1.118,11.86,4.394c-0.23,3.278-13.304,12.867-17.281,17.31c-3.971,4.444-16.71,13.85-18.022,20.437
	c-1.318,6.587,2.574,23.998-27.32,39.697c0,0-2.323,12.061,1.11,21.526L580.792,433.704z"/>
<path fill="#FAD5B6" d="M632.798,261.191c0,0,2.651,2.427,5.722,1.747c3.076-0.686,6.203-3.983,6.203-3.983l-2.083-2.706
	L632.798,261.191z"/>
<path fill="#FAD5B6" d="M677.374,325.749c0,0-11.142-4.716-4.897-9.873l6.522,7.567L677.374,325.749z"/>
<path fill="#C1272D" d="M786.05,309.563l-18.857,55.953c-0.604,1.796-2.546,2.758-4.345,2.157l-92.652-31.226
	c-1.794-0.602-2.759-2.546-2.152-4.345l2.07-6.14c0,0,34.232-40.821,105.043-23.688l8.736,2.948
	C785.689,305.827,786.654,307.766,786.05,309.563z"/>
<path fill="#B2242E" d="M775.157,302.275c-70.811-17.133-105.043,23.688-105.043,23.688l16.787-49.809
	c0.604-1.794,2.547-2.759,4.343-2.155L775.157,302.275z"/>
<rect x="721.235" y="300.796" transform="matrix(-0.9476 -0.3193 0.3193 -0.9476 1369.4585 836.8344)" fill="#F28B44" width="64.192" height="10.713"/>
<path fill="#F2C339" d="M697.117,295.499l-1.077,3.184l-4.87-1.641l0.773-2.303c0.104-0.308,0.248-0.592,0.419-0.842
	L697.117,295.499z"/>
<path fill="#131313" d="M696.245,299.094l-5.484-1.854l0.88-2.603c0.107-0.335,0.267-0.645,0.456-0.921l0.141-0.202l5.287,1.781
	L696.245,299.094z M691.574,296.839l4.269,1.436l0.867-2.579l-4.209-1.418c-0.098,0.182-0.185,0.371-0.251,0.563L691.574,296.839z"
	/>
<path fill="#F2C339" d="M697.913,293.134l-0.796,2.364l-4.755-1.602c0.848-1.236,2.437-1.814,3.926-1.311L697.913,293.134z"/>
<path fill="#131313" d="M697.319,295.906l-5.461-1.841l0.238-0.348c0.944-1.382,2.71-1.971,4.297-1.438l1.927,0.653L697.319,295.906
	z M692.897,293.738l4.015,1.354l0.597-1.758l-1.323-0.442C695.01,292.495,693.718,292.847,692.897,293.738z"/>
<path fill="#F2C339" d="M694.95,301.934l-1.075,3.188l-4.752-1.602c0.013-0.31,0.069-0.619,0.177-0.927l0.775-2.3L694.95,301.934z"
	/>
<path fill="#131313" d="M694.074,305.525l-5.281-1.776l0.01-0.24c0.011-0.338,0.077-0.684,0.189-1.016l0.881-2.61l5.483,1.848
	L694.074,305.525z M689.462,303.295l4.21,1.418l0.867-2.579l-4.266-1.438l-0.673,2.001
	C689.532,302.894,689.489,303.096,689.462,303.295z"/>
<rect x="691.342" y="296.917" transform="matrix(0.3178 -0.9482 0.9482 0.3178 188.8622 861.4571)" fill="#F2C339" width="3.43" height="5.143"/>
<path fill="#131313" d="M695.149,302.338l-5.486-1.845l1.303-3.859l5.48,1.851L695.149,302.338z M690.479,300.089l4.266,1.436
	l0.891-2.639l-4.264-1.436L690.479,300.089z"/>
<path fill="#F2C339" d="M693.875,305.123l-0.796,2.362l-1.622-0.545c-1.489-0.504-2.411-1.927-2.334-3.419L693.875,305.123z"/>
<path fill="#131313" d="M693.276,307.892l-1.927-0.647c-1.584-0.538-2.634-2.075-2.547-3.739l0.021-0.427l5.456,1.84
	L693.276,307.892z M689.45,303.971c0.113,1.208,0.93,2.268,2.104,2.664l1.323,0.445l0.591-1.758L689.45,303.971z"/>
<rect x="694.867" y="304.406" transform="matrix(0.3187 -0.9479 0.9479 0.3187 183.0962 869.1128)" fill="#F2C339" width="2.497" height="5.572"/>
<path fill="#131313" d="M698.555,309.673l-5.886-1.986l1.003-2.974l5.886,1.98L698.555,309.673z M693.486,307.283l4.67,1.576
	l0.591-1.758l-4.673-1.576L693.486,307.283z"/>
<path fill="#F2C339" d="M703.366,308.322c-0.85,1.23-2.436,1.81-3.923,1.311l-1.085-0.366l0.796-2.367L703.366,308.322z"/>
<path fill="#131313" d="M699.34,309.939l-1.392-0.474l1-2.974l4.924,1.658l-0.24,0.351
	C702.688,309.877,700.919,310.466,699.34,309.939z M698.765,309.061l0.78,0.267c1.172,0.396,2.464,0.049,3.285-0.85l-3.475-1.172
	L698.765,309.061z"/>
<rect x="701.228" y="300.531" transform="matrix(0.3192 -0.9477 0.9477 0.3192 191.5773 872.319)" fill="#F2C339" width="3.429" height="4.573"/>
<path fill="#131313" d="M704.763,305.579l-4.944-1.666l1.3-3.856l4.947,1.666L704.763,305.579z M700.635,303.511l3.724,1.254
	l0.893-2.639l-3.729-1.254L700.635,303.511z"/>
<path fill="#F2C339" d="M704.561,305.174l-0.778,2.303c-0.103,0.308-0.243,0.589-0.417,0.845l-4.212-1.423l1.075-3.188
	L704.561,305.174z"/>
<path fill="#131313" d="M703.497,308.703l-4.75-1.602l1.274-3.798l4.949,1.666l-0.88,2.61c-0.11,0.325-0.264,0.637-0.458,0.921
	L703.497,308.703z M699.558,306.694l3.672,1.239c0.103-0.175,0.185-0.363,0.251-0.556l0.673-2.001l-3.726-1.257L699.558,306.694z"/>
<path fill="#F2C339" d="M706.608,298.7l-4.212-1.42l0.796-2.367l1.085,0.366C705.766,295.783,706.68,297.201,706.608,298.7z"/>
<path fill="#131313" d="M706.908,299.135l-4.919-1.656l1.001-2.974l1.392,0.469c1.579,0.534,2.631,2.07,2.549,3.743L706.908,299.135
	z M702.803,297.078l3.475,1.167c-0.109-1.203-0.929-2.268-2.101-2.662l-0.783-0.263L702.803,297.078z"/>
<path fill="#F2C339" d="M706.431,299.624l-0.775,2.301l-4.329-1.459l1.069-3.186l4.212,1.42
	C706.595,299.004,706.537,299.317,706.431,299.624z"/>
<path fill="#131313" d="M705.861,302.329l-4.944-1.663l1.274-3.796l4.753,1.6l-0.014,0.248c-0.018,0.344-0.081,0.684-0.191,1.006
	L705.861,302.329z M701.728,300.261l3.729,1.259l0.673-2.001c0.066-0.195,0.11-0.392,0.139-0.6l-3.67-1.233L701.728,300.261z"/>
<rect x="698.906" y="292.42" transform="matrix(0.3187 -0.9479 0.9479 0.3187 197.2087 864.7739)" fill="#F2C339" width="2.497" height="5.572"/>
<path fill="#131313" d="M702.598,297.686l-5.889-1.99l1.001-2.972l5.889,1.986L702.598,297.686z M697.524,295.296l4.667,1.573
	l0.592-1.753l-4.668-1.578L697.524,295.296z"/>
<rect x="693.06" y="298.416" transform="matrix(0.3194 -0.9476 0.9476 0.3194 189.7261 866.564)" fill="#F2C339" width="10.151" height="5.57"/>
<path fill="#131313" d="M699.356,307.306l-5.889-1.983l3.444-10.231l5.892,1.986L699.356,307.306z M694.279,304.918l4.67,1.573
	l3.04-9.013l-4.67-1.573L694.279,304.918z"/>
<g>
	<g>
		<path fill="#F5F5F5" d="M733.375,301.509c0.156,0.052,0.271,0.182,0.197,0.395c-0.072,0.21-0.241,0.248-0.395,0.194l-2.615-0.88
			l1.446-4.287c0.062-0.191,0.182-0.269,0.394-0.199c0.21,0.074,0.259,0.207,0.197,0.396l-1.251,3.695L733.375,301.509z"/>
		<path fill="#F5F5F5" d="M738.552,300.65c0.033,0.269,0.018,0.453-0.069,0.703c-0.092,0.287-0.23,0.436-0.43,0.638l-0.908,0.903
			c-0.235,0.235-0.54,0.363-0.886,0.246c-0.338-0.115-0.504-0.402-0.553-0.732l-0.177-1.267c-0.033-0.284-0.051-0.483,0.047-0.768
			c0.084-0.254,0.182-0.409,0.371-0.604l0.982-0.967c0.237-0.23,0.547-0.361,0.878-0.248c0.33,0.115,0.501,0.404,0.547,0.724
			L738.552,300.65z M737.747,299.385c-0.011-0.107-0.011-0.202-0.136-0.243c-0.126-0.041-0.185,0.031-0.264,0.115l-0.888,0.881
			c-0.146,0.146-0.23,0.237-0.297,0.435c-0.049,0.151-0.049,0.271-0.031,0.42l0.192,1.315c0.013,0.095,0.021,0.202,0.138,0.243
			c0.118,0.038,0.192-0.041,0.259-0.112l0.944-0.93c0.109-0.107,0.179-0.199,0.228-0.355c0.066-0.194,0.059-0.317,0.028-0.52
			L737.747,299.385z"/>
		<path fill="#F5F5F5" d="M739.745,303.984c-0.066,0.189-0.189,0.264-0.399,0.192c-0.212-0.069-0.258-0.205-0.194-0.39l1.446-4.291
			l1.978,0.665c0.469,0.156,0.819,0.646,0.646,1.167l-0.136,0.407c-0.187,0.558-0.745,0.686-1.216,0.524l-0.542-0.182l0.686,2.344
			c0.036,0.11,0.084,0.246,0.043,0.361c-0.054,0.164-0.228,0.23-0.394,0.174c-0.115-0.038-0.169-0.136-0.205-0.251l-0.839-2.868
			l-0.139-0.046L739.745,303.984z M740.681,301.2l1.303,0.44c0.166,0.057,0.428,0.133,0.51-0.103l0.138-0.407
			c0.077-0.237-0.153-0.345-0.33-0.406l-1.313-0.443L740.681,301.2z"/>
		<path fill="#F5F5F5" d="M746.112,305.798c0.15,0.052,0.266,0.185,0.194,0.396c-0.071,0.213-0.238,0.248-0.395,0.197l-2.615-0.883
			l1.546-4.586l2.615,0.883c0.151,0.052,0.269,0.18,0.194,0.392c-0.071,0.215-0.24,0.251-0.392,0.197l-2.026-0.684l-0.476,1.413
			l0.864,0.289c0.154,0.051,0.269,0.182,0.194,0.394c-0.068,0.213-0.24,0.249-0.394,0.195l-0.862-0.292l-0.477,1.407
			L746.112,305.798z"/>
		<path fill="#F5F5F5" d="M751.263,303.088l0.734,0.248l-1.448,4.289c-0.062,0.189-0.177,0.267-0.392,0.194
			c-0.213-0.071-0.256-0.202-0.192-0.394l1.172-3.476l-0.015-0.008l-0.842,0.646l-0.031,0.095c-0.059,0.184-0.187,0.33-0.414,0.256
			c-0.213-0.072-0.233-0.271-0.177-0.456l0.033-0.087l-0.281-1.023l-0.011-0.005l-1.172,3.478c-0.062,0.187-0.182,0.264-0.392,0.197
			c-0.215-0.072-0.261-0.21-0.194-0.396l1.443-4.289l0.734,0.245l0.373,1.277L751.263,303.088z"/>
		<path fill="#F5F5F5" d="M757.98,309.801l0.862,0.289c0.159,0.051,0.27,0.187,0.195,0.398c-0.069,0.21-0.238,0.246-0.392,0.192
			l-2.318-0.783c-0.154-0.051-0.271-0.182-0.2-0.392c0.072-0.212,0.243-0.243,0.396-0.197l0.868,0.292l1.146-3.406l-0.865-0.294
			c-0.153-0.049-0.271-0.179-0.199-0.392c0.074-0.212,0.243-0.246,0.396-0.194l2.321,0.783c0.153,0.054,0.266,0.182,0.194,0.394
			c-0.072,0.213-0.238,0.246-0.395,0.194l-0.862-0.291L757.98,309.801z"/>
		<path fill="#F5F5F5" d="M760.964,311.136c-0.066,0.189-0.182,0.267-0.395,0.195c-0.212-0.072-0.261-0.208-0.196-0.392l1.445-4.292
			l1.958,0.658c0.269,0.092,0.452,0.199,0.596,0.471c0.172,0.322,0.126,0.545,0.016,0.867l-0.267,0.796
			c-0.104,0.305-0.199,0.507-0.498,0.676c-0.317,0.182-0.563,0.123-0.884,0.016l-1.292-0.433L760.964,311.136z M761.645,309.105
			l1.311,0.442c0.348,0.12,0.452,0.054,0.567-0.281l0.279-0.824c0.112-0.338,0.063-0.45-0.279-0.568l-1.31-0.439L761.645,309.105z"
			/>
		<path fill="#F5F5F5" d="M767.613,312.418c0.066,0.192,0.109,0.358,0.041,0.561c-0.148,0.44-0.556,0.55-0.963,0.412l-1.297-0.435
			c-0.226-0.074-0.404-0.185-0.532-0.392c-0.115-0.185-0.164-0.431-0.093-0.638c0.062-0.191,0.223-0.322,0.433-0.251
			c0.167,0.057,0.226,0.235,0.172,0.392c-0.057,0.177,0.028,0.235,0.191,0.295l1.28,0.425c0.051,0.018,0.187,0.084,0.217-0.003
			c0.021-0.051-0.033-0.164-0.046-0.207l-1.144-3.281c-0.074-0.199-0.105-0.34-0.033-0.545c0.079-0.235,0.261-0.401,0.504-0.461
			c0.199-0.054,0.335-0.005,0.522,0.057l1.248,0.422c0.223,0.072,0.399,0.185,0.52,0.39c0.107,0.189,0.156,0.447,0.087,0.652
			c-0.063,0.192-0.207,0.31-0.417,0.24c-0.179-0.056-0.251-0.21-0.191-0.373c0.063-0.2-0.021-0.264-0.205-0.325l-1.251-0.422
			c-0.062-0.019-0.194-0.085-0.229,0.015c-0.015,0.054,0.023,0.151,0.036,0.192L767.613,312.418z"/>
		<path fill="#F5F5F5" d="M769.721,314.415c-0.297-0.097-0.504-0.245-0.632-0.548c-0.12-0.286-0.079-0.504,0.015-0.772l1.108-3.291
			c0.062-0.187,0.182-0.269,0.392-0.197c0.213,0.072,0.259,0.205,0.197,0.392l-1.108,3.289c-0.115,0.33-0.038,0.447,0.228,0.539
			l1.001,0.336c0.264,0.089,0.392,0.043,0.502-0.289l1.11-3.289c0.062-0.189,0.182-0.264,0.394-0.191
			c0.21,0.069,0.256,0.207,0.192,0.392l-1.105,3.285c-0.092,0.271-0.194,0.477-0.463,0.625c-0.282,0.161-0.538,0.158-0.832,0.062
			L769.721,314.415z"/>
		<path fill="#F5F5F5" d="M776.73,311.671l0.734,0.246l-1.445,4.291c-0.062,0.187-0.18,0.267-0.392,0.197
			c-0.215-0.072-0.259-0.21-0.194-0.395l1.169-3.478l-0.01-0.005l-0.842,0.645l-0.031,0.095c-0.062,0.18-0.194,0.328-0.414,0.251
			c-0.213-0.066-0.235-0.269-0.177-0.453l0.03-0.092l-0.276-1.019l-0.013-0.005l-1.169,3.475c-0.064,0.189-0.185,0.267-0.399,0.197
			c-0.21-0.074-0.256-0.205-0.192-0.395l1.443-4.288l0.734,0.243l0.374,1.281L776.73,311.671z"/>
	</g>
</g>
<path fill="#F5F5F5" d="M687.779,316.183l0.415-1.226c0.059-0.177,0.179-0.279,0.406-0.202c0.226,0.076,0.259,0.232,0.197,0.406
	l-0.515,1.528c-0.074,0.22-0.248,0.253-0.401,0.202l-2.393-0.807c-0.159-0.051-0.276-0.187-0.2-0.404
	c0.072-0.22,0.243-0.256,0.404-0.204l0.891,0.304l1.183-3.506l-0.893-0.302c-0.156-0.056-0.271-0.187-0.2-0.409
	c0.074-0.215,0.246-0.251,0.407-0.197l1.497,0.507l-1.385,4.109L687.779,316.183z"/>
<path fill="#F5F5F5" d="M690.366,317.055l2.086,0.701c0.161,0.057,0.276,0.188,0.202,0.407c-0.074,0.218-0.248,0.254-0.404,0.199
	l-2.692-0.91l0.666-1.974c0.153-0.453,0.46-0.606,0.916-0.453l1.701,0.576l0.491-1.453l-2.085-0.701
	c-0.156-0.057-0.276-0.189-0.2-0.41c0.072-0.212,0.246-0.25,0.402-0.196l2.014,0.678c0.202,0.069,0.333,0.146,0.436,0.335
	c0.12,0.215,0.079,0.387,0.005,0.602l-0.417,1.246c-0.074,0.215-0.148,0.376-0.369,0.477c-0.199,0.089-0.351,0.071-0.55,0.005
	l-1.709-0.578L690.366,317.055z"/>
<path fill="#F5F5F5" d="M695.618,314.921c-0.162-0.057-0.277-0.189-0.2-0.407c0.071-0.217,0.246-0.253,0.404-0.202l2.086,0.704
	c0.348,0.118,0.52,0.463,0.401,0.812l-0.392,1.164c-0.082,0.246-0.191,0.404-0.435,0.509c0.13,0.23,0.117,0.425,0.038,0.666
	l-0.394,1.167c-0.118,0.345-0.469,0.517-0.812,0.398l-2.086-0.698c-0.156-0.057-0.276-0.189-0.199-0.407
	c0.071-0.22,0.245-0.253,0.404-0.202l2.088,0.707l0.338-1.006c0.115-0.341,0.013-0.491-0.151-0.543l-1.192-0.404
	c-0.158-0.056-0.273-0.187-0.202-0.406c0.072-0.221,0.251-0.254,0.407-0.2l1.189,0.399c0.169,0.054,0.338-0.003,0.456-0.341
	l0.338-1.008L695.618,314.921z"/>
<path fill="#F5F5F5" d="M701.106,318.957l0.594-1.753c0.052-0.15,0.174-0.276,0.404-0.199c0.235,0.077,0.254,0.251,0.2,0.407
	l-0.592,1.753c0.161,0.054,0.279,0.184,0.202,0.406c-0.074,0.215-0.245,0.251-0.406,0.197l-0.412,1.238
	c-0.069,0.197-0.192,0.276-0.407,0.2c-0.22-0.069-0.269-0.21-0.204-0.404l0.417-1.239l-1.781-0.599l0.967-2.876
	c0.054-0.153,0.177-0.279,0.407-0.199c0.23,0.076,0.253,0.25,0.199,0.401l-0.76,2.27L701.106,318.957z"/>
<path fill="#F5F5F5" d="M709.141,321.091l1.116,0.376c0.197,0.066,0.335,0.144,0.433,0.333c0.115,0.217,0.084,0.368,0.013,0.581
	l-0.438,1.297c-0.064,0.187-0.128,0.314-0.308,0.425c-0.212,0.133-0.378,0.103-0.594,0.028l-1.346-0.453
	c-0.161-0.054-0.238-0.125-0.368-0.243l-0.194-0.179c-0.141-0.128-0.303-0.246-0.23-0.458c0.054-0.161,0.238-0.262,0.396-0.21
	c0.069,0.028,0.115,0.066,0.172,0.115l0.155,0.141c0.077,0.066,0.188,0.199,0.287,0.23l1.397,0.471l0.486-1.448l-1.789-0.6
	l0.9-2.666l2.094,0.704c0.153,0.054,0.273,0.187,0.199,0.406c-0.071,0.213-0.245,0.251-0.407,0.2l-1.483-0.499L709.141,321.091z"/>
<path fill="#F5F5F5" d="M712.742,322.877l2.027,0.684c0.299,0.1,0.317,0.25,0.22,0.529l-0.455,1.356
	c-0.098,0.289-0.248,0.346-0.52,0.251l-2.214-0.742c-0.281-0.1-0.355-0.235-0.261-0.515l1.358-4.038
	c0.046-0.136,0.151-0.284,0.361-0.213l0.363,0.123c0.158,0.057,0.238,0.241,0.187,0.399c-0.062,0.182-0.23,0.261-0.404,0.199
	L712.742,322.877z M712.535,323.487l-0.312,0.931l1.783,0.604l0.314-0.935L712.535,323.487z"/>
<path fill="#F5F5F5" d="M717.773,322.386c-0.046,0.133-0.212,0.269-0.406,0.199c-0.192-0.062-0.243-0.269-0.2-0.404l0.1-0.305
	c0.049-0.133,0.213-0.266,0.407-0.202l2.692,0.911l-0.592,1.758c-0.071,0.213-0.074,0.241-0.289,0.328l-1.098,0.445
	c-0.205,0.087-0.223,0.1-0.292,0.31l-0.396,1.177c-0.066,0.194-0.189,0.276-0.406,0.197c-0.221-0.071-0.267-0.207-0.202-0.401
	l0.493-1.462c0.066-0.202,0.077-0.217,0.274-0.297l1.082-0.439c0.261-0.11,0.243-0.11,0.335-0.377l0.279-0.839L717.773,322.386z"/>
<path fill="#F5F5F5" d="M723.828,323.75c0.207,0.072,0.256,0.246,0.205,0.407l-0.597,1.753c0.192,0.064,0.314,0.182,0.389,0.317
	c0.074,0.144,0.08,0.314,0.016,0.502l-0.488,1.44c-0.123,0.374-0.433,0.527-0.812,0.401l-1.781-0.599
	c-0.379-0.13-0.529-0.442-0.406-0.813l0.485-1.443c0.067-0.187,0.175-0.32,0.315-0.387c0.144-0.066,0.312-0.084,0.501-0.021
	l0.592-1.755c0.054-0.156,0.199-0.267,0.401-0.197L723.828,323.75z M722.746,327.964l0.488-1.448l-1.786-0.599l-0.483,1.448
	L722.746,327.964z M722.834,325.705l0.486-1.453l-0.57-0.187l-0.491,1.448L722.834,325.705z"/>
<path fill="#F5F5F5" d="M732.145,328.958l-2.086-0.704c-0.169-0.054-0.254-0.248-0.199-0.401l0.524-1.554
	c0.051-0.161,0.229-0.261,0.404-0.196l2.388,0.801c0.168,0.056,0.253,0.245,0.204,0.401l-1.39,4.115
	c-0.054,0.164-0.223,0.264-0.404,0.199l-0.305-0.1c-0.179-0.062-0.253-0.243-0.199-0.407c0.062-0.179,0.232-0.261,0.404-0.202
	L732.145,328.958z M732.349,328.351l0.32-0.947l-1.786-0.599l-0.317,0.947L732.349,328.351z"/>
<path fill="#F5F5F5" d="M737.242,328.272c0.336,0.109,0.52,0.479,0.407,0.813l-1.183,3.503c-0.114,0.344-0.468,0.52-0.813,0.405
	l-1.778-0.604c-0.351-0.117-0.52-0.468-0.407-0.809l1.183-3.511c0.112-0.33,0.479-0.512,0.809-0.399L737.242,328.272z
	 M735.858,332.384l1.185-3.506l-1.786-0.604l-1.18,3.509L735.858,332.384z"/>
<path fill="#F5F5F5" d="M740.229,333.858l0.411-1.223c0.06-0.18,0.185-0.279,0.407-0.205c0.223,0.079,0.261,0.23,0.202,0.407
	l-0.517,1.53c-0.072,0.217-0.246,0.25-0.407,0.199l-2.388-0.804c-0.158-0.056-0.273-0.189-0.202-0.412
	c0.072-0.212,0.251-0.25,0.404-0.196l0.891,0.299l1.185-3.506l-0.891-0.299c-0.161-0.057-0.276-0.189-0.202-0.407
	s0.246-0.253,0.402-0.205l1.502,0.51l-1.39,4.109L740.229,333.858z"/>
<path fill="#F5F5F5" d="M742.818,334.731l2.083,0.698c0.162,0.057,0.276,0.192,0.202,0.407c-0.076,0.22-0.245,0.256-0.406,0.204
	l-2.695-0.91l0.668-1.976c0.156-0.456,0.461-0.612,0.919-0.456l1.704,0.576l0.489-1.448l-2.088-0.707
	c-0.156-0.056-0.271-0.187-0.2-0.404c0.074-0.22,0.248-0.256,0.404-0.202l2.014,0.679c0.202,0.066,0.331,0.148,0.436,0.335
	c0.118,0.212,0.077,0.387,0.005,0.606l-0.42,1.241c-0.074,0.22-0.143,0.379-0.371,0.476c-0.196,0.09-0.348,0.077-0.547,0.008
	l-1.707-0.575L742.818,334.731z"/>
<path fill="#F5F5F5" d="M752.435,334.065c-0.156-0.051-0.273-0.187-0.202-0.404c0.074-0.22,0.251-0.253,0.409-0.202l2.086,0.704
	c0.343,0.118,0.521,0.463,0.404,0.812l-0.395,1.167c-0.084,0.24-0.191,0.398-0.435,0.509c0.131,0.23,0.117,0.425,0.036,0.663
	l-0.392,1.167c-0.118,0.348-0.466,0.52-0.812,0.404l-2.086-0.704c-0.156-0.054-0.276-0.187-0.204-0.407
	c0.076-0.217,0.25-0.253,0.406-0.202l2.091,0.704l0.338-1.006c0.112-0.34,0.016-0.488-0.156-0.545l-1.189-0.399
	c-0.156-0.054-0.271-0.191-0.2-0.406c0.074-0.218,0.249-0.256,0.407-0.2l1.188,0.396c0.171,0.062,0.34,0,0.453-0.34l0.338-1.006
	L752.435,334.065z"/>
<path fill="#F5F5F5" d="M757.926,338.103l0.592-1.75c0.054-0.153,0.176-0.279,0.406-0.202c0.233,0.079,0.251,0.254,0.197,0.404
	l-0.589,1.756c0.161,0.051,0.279,0.187,0.202,0.404c-0.071,0.22-0.248,0.256-0.404,0.199l-0.419,1.236
	c-0.064,0.199-0.185,0.278-0.404,0.207c-0.218-0.077-0.264-0.212-0.2-0.412l0.417-1.233l-1.786-0.602l0.973-2.879
	c0.051-0.148,0.172-0.273,0.404-0.199c0.228,0.082,0.251,0.253,0.199,0.407l-0.762,2.27L757.926,338.103z"/>
<path fill="#F5F5F5" d="M761.594,338.766l1.115,0.379c0.194,0.062,0.327,0.141,0.428,0.33c0.12,0.218,0.084,0.368,0.013,0.581
	l-0.436,1.297c-0.062,0.188-0.128,0.317-0.305,0.423c-0.217,0.133-0.381,0.103-0.601,0.03l-1.344-0.453
	c-0.159-0.056-0.235-0.128-0.366-0.242l-0.194-0.183c-0.141-0.13-0.305-0.243-0.232-0.46c0.054-0.156,0.237-0.256,0.396-0.202
	c0.074,0.021,0.12,0.059,0.174,0.115l0.158,0.138c0.072,0.066,0.182,0.2,0.282,0.23l1.399,0.474l0.488-1.451l-1.788-0.602
	l0.898-2.661l2.088,0.704c0.164,0.051,0.276,0.184,0.204,0.406c-0.071,0.213-0.245,0.251-0.404,0.197l-1.486-0.499L761.594,338.766z
	"/>
<path fill="#F5F5F5" d="M765.189,340.552l2.027,0.681c0.304,0.105,0.319,0.251,0.223,0.532l-0.458,1.359
	c-0.096,0.286-0.243,0.338-0.52,0.251l-2.206-0.748c-0.289-0.095-0.363-0.232-0.267-0.512l1.359-4.04
	c0.048-0.136,0.148-0.282,0.363-0.213l0.363,0.126c0.156,0.054,0.238,0.237,0.182,0.396c-0.057,0.182-0.23,0.261-0.404,0.202
	L765.189,340.552z M764.987,341.159l-0.317,0.935l1.784,0.602l0.314-0.932L764.987,341.159z"/>
<path fill="#F5F5F5" d="M684.614,321.892l-0.396-0.133l0.842-2.511c-0.121,0.062-0.274,0.11-0.461,0.151
	c-0.182,0.033-0.346,0.059-0.481,0.062l0.128-0.382c0.256-0.028,0.486-0.09,0.701-0.182c0.215-0.095,0.382-0.191,0.497-0.31
	l0.253,0.085L684.614,321.892z"/>
<path fill="#F5F5F5" d="M687.817,322.547l-0.13,0.381l-2.119-0.714c0.03-0.097,0.077-0.182,0.139-0.258
	c0.104-0.128,0.235-0.236,0.401-0.341c0.166-0.1,0.392-0.199,0.678-0.313c0.445-0.166,0.761-0.312,0.937-0.435
	c0.18-0.128,0.297-0.267,0.344-0.415c0.054-0.155,0.043-0.307-0.033-0.45c-0.077-0.146-0.205-0.248-0.379-0.31
	c-0.194-0.062-0.366-0.057-0.518,0.018c-0.153,0.074-0.261,0.216-0.33,0.412l-0.392-0.174c0.128-0.297,0.313-0.491,0.543-0.583
	c0.238-0.103,0.507-0.1,0.812,0.005c0.31,0.1,0.521,0.271,0.645,0.502c0.12,0.229,0.141,0.473,0.057,0.724
	c-0.047,0.131-0.113,0.248-0.208,0.355c-0.097,0.101-0.228,0.205-0.394,0.3c-0.167,0.098-0.436,0.215-0.796,0.358
	c-0.302,0.12-0.499,0.204-0.597,0.253c-0.087,0.049-0.163,0.1-0.232,0.156L687.817,322.547z"/>
<path fill="#F5F5F5" d="M688.398,322.225l0.412,0.082c-0.03,0.232-0.008,0.425,0.069,0.56c0.071,0.134,0.187,0.229,0.343,0.279
	c0.187,0.062,0.363,0.054,0.535-0.03c0.171-0.09,0.286-0.226,0.353-0.415c0.06-0.182,0.054-0.351-0.025-0.509
	c-0.082-0.156-0.212-0.264-0.394-0.328c-0.074-0.025-0.175-0.041-0.292-0.049l0.161-0.33c0.025,0.013,0.044,0.019,0.063,0.028
	c0.164,0.049,0.33,0.059,0.492,0.019c0.163-0.041,0.276-0.151,0.34-0.336c0.049-0.146,0.036-0.278-0.025-0.409
	c-0.066-0.128-0.18-0.215-0.328-0.269c-0.155-0.049-0.302-0.046-0.435,0.013c-0.133,0.062-0.248,0.187-0.343,0.366l-0.369-0.197
	c0.136-0.251,0.317-0.422,0.533-0.507c0.223-0.084,0.458-0.09,0.708-0.003c0.18,0.06,0.328,0.154,0.451,0.279
	c0.12,0.12,0.196,0.261,0.232,0.417c0.033,0.159,0.025,0.31-0.022,0.456c-0.047,0.136-0.126,0.25-0.241,0.338
	c-0.112,0.087-0.253,0.143-0.422,0.158c0.177,0.11,0.294,0.251,0.351,0.425c0.059,0.169,0.054,0.361-0.019,0.573
	c-0.092,0.271-0.276,0.476-0.545,0.606c-0.271,0.125-0.561,0.139-0.872,0.031c-0.279-0.095-0.481-0.259-0.617-0.492
	C688.363,322.752,688.332,322.501,688.398,322.225z"/>
<path fill="#F5F5F5" d="M691.863,324.333l0.259-0.766l-1.395-0.471l0.125-0.36l2.16-1.584l0.322,0.109l-0.698,2.078l0.435,0.146
	l-0.125,0.36l-0.43-0.151l-0.259,0.769L691.863,324.333z M692.242,323.208l0.486-1.448l-1.492,1.107L692.242,323.208z"/>
<path fill="#F5F5F5" d="M682.458,331.402l0.44,0.281c-0.235,0.363-0.517,0.602-0.847,0.719c-0.33,0.12-0.684,0.12-1.065-0.008
	c-0.391-0.133-0.681-0.322-0.869-0.563c-0.192-0.24-0.3-0.532-0.325-0.881c-0.025-0.343,0.021-0.688,0.136-1.033
	c0.128-0.379,0.31-0.681,0.55-0.916c0.238-0.233,0.515-0.374,0.826-0.436c0.32-0.051,0.638-0.025,0.957,0.082
	c0.361,0.12,0.635,0.317,0.819,0.583c0.185,0.27,0.271,0.587,0.253,0.952l-0.506-0.043c0.005-0.292-0.054-0.53-0.175-0.701
	c-0.117-0.174-0.299-0.305-0.542-0.387c-0.279-0.092-0.532-0.103-0.763-0.033c-0.238,0.069-0.428,0.202-0.578,0.404
	c-0.151,0.199-0.267,0.417-0.349,0.655c-0.102,0.31-0.148,0.594-0.136,0.854c0.011,0.259,0.095,0.481,0.243,0.652
	c0.154,0.182,0.341,0.31,0.559,0.382c0.269,0.092,0.524,0.092,0.763-0.003C682.087,331.875,682.292,331.683,682.458,331.402z"/>
<path fill="#F5F5F5" d="M682.702,332.904l2.615-3.158l0.512,0.177l0.267,4.12l-0.545-0.185l-0.057-1.238l-1.51-0.515l-0.772,0.968
	L682.702,332.904z M684.252,331.762l1.226,0.42l-0.041-1.137c-0.015-0.34-0.015-0.621-0.002-0.834
	c-0.126,0.215-0.267,0.422-0.428,0.624L684.252,331.762z"/>
<path fill="#F5F5F5" d="M686.487,334.173l1.215-3.621l1.61,0.539c0.322,0.11,0.558,0.226,0.703,0.349
	c0.148,0.117,0.243,0.281,0.29,0.479c0.043,0.199,0.033,0.396-0.036,0.596c-0.087,0.257-0.241,0.445-0.469,0.563
	c-0.225,0.123-0.52,0.151-0.885,0.082c0.109,0.1,0.184,0.191,0.229,0.278c0.098,0.175,0.172,0.379,0.236,0.612l0.299,1.202
	l-0.606-0.204l-0.223-0.914c-0.066-0.271-0.125-0.474-0.179-0.616c-0.052-0.146-0.105-0.259-0.164-0.323
	c-0.057-0.074-0.115-0.133-0.187-0.174c-0.046-0.027-0.134-0.066-0.259-0.104l-0.556-0.189l-0.54,1.609L686.487,334.173z
	 M687.646,332.312l1.034,0.346c0.217,0.077,0.396,0.113,0.537,0.107c0.136-0.002,0.256-0.043,0.355-0.125
	c0.095-0.077,0.164-0.174,0.202-0.294c0.062-0.169,0.041-0.331-0.046-0.481c-0.087-0.153-0.264-0.271-0.532-0.366l-1.146-0.384
	L687.646,332.312z"/>
<path fill="#F5F5F5" d="M690.133,335.401l1.223-3.621l1.247,0.423c0.278,0.097,0.488,0.184,0.629,0.271
	c0.188,0.114,0.338,0.261,0.443,0.435c0.135,0.226,0.209,0.481,0.22,0.766c0.008,0.283-0.044,0.583-0.148,0.905
	c-0.095,0.279-0.207,0.51-0.346,0.701c-0.136,0.189-0.276,0.341-0.422,0.448c-0.151,0.104-0.295,0.174-0.44,0.215
	s-0.314,0.049-0.496,0.036c-0.18-0.016-0.382-0.062-0.604-0.136L690.133,335.401z M690.757,335.135l0.773,0.264
	c0.237,0.079,0.435,0.122,0.583,0.122c0.153,0.003,0.284-0.025,0.387-0.081c0.156-0.072,0.294-0.197,0.425-0.366
	c0.125-0.172,0.237-0.392,0.33-0.668c0.125-0.379,0.161-0.688,0.107-0.937c-0.057-0.243-0.161-0.436-0.314-0.561
	c-0.113-0.09-0.31-0.187-0.597-0.284l-0.763-0.256L690.757,335.135z"/>
<path fill="#F5F5F5" d="M695.208,337.113l1.224-3.618l0.48,0.156l-0.501,1.489l1.881,0.635l0.504-1.487l0.477,0.164l-1.219,3.621
	l-0.48-0.161l0.575-1.707l-1.884-0.637l-0.572,1.704L695.208,337.113z"/>
<path fill="#F5F5F5" d="M699.299,336.527c0.202-0.599,0.522-1.016,0.963-1.248c0.435-0.23,0.908-0.259,1.42-0.09
	c0.335,0.112,0.611,0.294,0.826,0.548c0.213,0.248,0.341,0.54,0.387,0.87c0.046,0.337,0.008,0.683-0.118,1.046
	c-0.122,0.371-0.31,0.671-0.553,0.911c-0.248,0.24-0.529,0.392-0.852,0.443c-0.325,0.061-0.64,0.035-0.955-0.072
	c-0.34-0.112-0.619-0.299-0.834-0.553c-0.21-0.256-0.34-0.55-0.381-0.878C699.162,337.169,699.192,336.847,699.299,336.527z
	 M699.791,336.701c-0.146,0.436-0.146,0.822,0.003,1.149c0.153,0.333,0.407,0.558,0.76,0.679c0.356,0.12,0.701,0.094,1.017-0.08
	c0.319-0.179,0.558-0.501,0.716-0.967c0.101-0.295,0.136-0.568,0.11-0.821c-0.025-0.251-0.112-0.474-0.267-0.658
	c-0.15-0.187-0.348-0.319-0.583-0.399c-0.341-0.117-0.671-0.097-0.993,0.057C700.229,335.805,699.975,336.156,699.791,336.701z"/>
<path fill="#F5F5F5" d="M702.77,339.66l1.218-3.619l0.479,0.159l-1.077,3.196l1.788,0.602l-0.146,0.427L702.77,339.66z"/>
<path fill="#F5F5F5" d="M705.602,340.619l1.221-3.626l1.249,0.423c0.284,0.095,0.494,0.184,0.63,0.271
	c0.189,0.115,0.34,0.262,0.442,0.436c0.136,0.223,0.21,0.48,0.223,0.768c0.011,0.281-0.044,0.583-0.151,0.908
	c-0.089,0.274-0.204,0.51-0.343,0.693c-0.138,0.194-0.278,0.341-0.425,0.451c-0.148,0.102-0.294,0.176-0.439,0.215
	c-0.146,0.038-0.313,0.051-0.497,0.035c-0.179-0.015-0.384-0.063-0.604-0.136L705.602,340.619z M706.227,340.35l0.775,0.259
	c0.235,0.082,0.433,0.123,0.586,0.123c0.148,0.002,0.276-0.023,0.384-0.08c0.153-0.071,0.294-0.196,0.42-0.365
	c0.13-0.172,0.243-0.39,0.33-0.666c0.128-0.378,0.166-0.688,0.112-0.938c-0.059-0.243-0.161-0.431-0.317-0.561
	c-0.112-0.093-0.31-0.187-0.597-0.284l-0.762-0.256L706.227,340.35z"/>
<path fill="#F5F5F5" d="M709.267,341.852l1.221-3.623l2.62,0.883l-0.146,0.43l-2.14-0.724l-0.373,1.107l2.006,0.679l-0.144,0.425
	l-2.006-0.676l-0.415,1.229l2.227,0.752l-0.146,0.43L709.267,341.852z"/>
<path fill="#F5F5F5" d="M712.642,342.986l1.221-3.618l1.604,0.543c0.322,0.102,0.561,0.22,0.709,0.343
	c0.144,0.117,0.24,0.281,0.284,0.479c0.043,0.199,0.033,0.396-0.033,0.596c-0.09,0.262-0.246,0.448-0.469,0.565
	c-0.228,0.12-0.52,0.148-0.883,0.08c0.103,0.1,0.18,0.194,0.228,0.276c0.095,0.179,0.175,0.381,0.233,0.619l0.302,1.194
	l-0.606-0.204l-0.226-0.911c-0.066-0.269-0.125-0.471-0.176-0.614c-0.057-0.151-0.107-0.261-0.161-0.33
	c-0.06-0.066-0.121-0.125-0.188-0.172c-0.054-0.025-0.136-0.061-0.261-0.102l-0.558-0.189l-0.54,1.612L712.642,342.986z
	 M713.807,341.124l1.025,0.351c0.221,0.074,0.399,0.107,0.54,0.104c0.136-0.005,0.256-0.046,0.354-0.125
	c0.1-0.074,0.169-0.172,0.204-0.292c0.06-0.172,0.044-0.33-0.043-0.481c-0.087-0.156-0.264-0.273-0.532-0.365l-1.146-0.387
	L713.807,341.124z"/>
<path fill="#F5F5F5" d="M716.532,332.67l0.271-0.793c0.038-0.115,0.12-0.179,0.267-0.131c0.143,0.049,0.166,0.148,0.128,0.264
	l-0.336,0.993c-0.049,0.141-0.158,0.166-0.261,0.131l-1.556-0.525c-0.098-0.033-0.174-0.117-0.128-0.258
	c0.051-0.141,0.163-0.167,0.264-0.133l0.581,0.194l0.765-2.272l-0.581-0.2c-0.1-0.03-0.177-0.12-0.128-0.261
	c0.044-0.141,0.161-0.169,0.264-0.131l0.973,0.328l-0.898,2.666L716.532,332.67z"/>
<path fill="#F5F5F5" d="M718.213,333.239l1.356,0.458c0.103,0.033,0.179,0.12,0.128,0.264c-0.046,0.144-0.161,0.164-0.262,0.128
	l-1.747-0.586l0.433-1.29c0.1-0.289,0.299-0.386,0.594-0.289l1.103,0.376l0.322-0.946l-1.356-0.456
	c-0.1-0.035-0.179-0.117-0.128-0.264c0.046-0.141,0.159-0.163,0.261-0.13l1.303,0.44c0.134,0.043,0.218,0.094,0.284,0.217
	c0.079,0.141,0.054,0.254,0.005,0.395l-0.273,0.812c-0.043,0.135-0.092,0.24-0.238,0.304c-0.128,0.057-0.225,0.046-0.355,0
	l-1.11-0.371L718.213,333.239z"/>
<path fill="#F5F5F5" d="M720.961,334.452c-0.074,0.069-0.141,0.105-0.237,0.071c-0.098-0.033-0.169-0.146-0.136-0.25
	c0.025-0.074,0.095-0.128,0.153-0.174l2.323-2.032c0.074-0.062,0.144-0.115,0.246-0.082c0.097,0.033,0.164,0.148,0.13,0.248
	c-0.022,0.066-0.054,0.105-0.097,0.139L720.961,334.452z"/>
<path fill="#F5F5F5" d="M725.045,335.54l0.267-0.794c0.036-0.112,0.12-0.179,0.267-0.133c0.146,0.052,0.166,0.151,0.128,0.264
	l-0.333,0.995c-0.046,0.144-0.161,0.164-0.264,0.131l-1.551-0.524c-0.103-0.033-0.179-0.118-0.131-0.261
	c0.047-0.144,0.161-0.164,0.267-0.131l0.575,0.194l0.766-2.277l-0.576-0.194c-0.104-0.033-0.182-0.118-0.13-0.267
	c0.046-0.136,0.158-0.163,0.266-0.128l0.965,0.328l-0.896,2.669L725.045,335.54z"/>
<path fill="#F5F5F5" d="M728.309,335.232l-1.354-0.458c-0.109-0.035-0.163-0.161-0.13-0.264l0.338-1.008
	c0.038-0.103,0.155-0.169,0.269-0.131l1.548,0.522c0.11,0.036,0.164,0.161,0.131,0.261l-0.901,2.675
	c-0.035,0.104-0.143,0.163-0.261,0.128l-0.197-0.064c-0.123-0.041-0.169-0.158-0.13-0.264c0.038-0.12,0.146-0.174,0.263-0.133
	L728.309,335.232z M728.442,334.838l0.207-0.617l-1.156-0.392l-0.208,0.62L728.442,334.838z"/>
<rect x="734.979" y="347.466" transform="matrix(-0.9476 -0.3194 0.3194 -0.9476 1348.2605 926.9697)" fill="#F5F5F5" width="30.324" height="10.926"/>
<g>
	<g>
		<path fill="#416B85" d="M736.894,350.124l1.628-2.77l1.019,0.343c0.22,0.074,0.373,0.136,0.455,0.177
			c0.138,0.069,0.248,0.154,0.327,0.249c0.085,0.097,0.134,0.201,0.154,0.319c0.018,0.12,0.008,0.243-0.039,0.366
			c-0.054,0.163-0.146,0.291-0.278,0.381c-0.134,0.093-0.31,0.136-0.522,0.133c0.141,0.093,0.233,0.208,0.281,0.349
			c0.054,0.133,0.057,0.269,0.011,0.407c-0.059,0.179-0.169,0.33-0.325,0.458c-0.158,0.122-0.333,0.194-0.537,0.204
			c-0.202,0.008-0.458-0.038-0.771-0.144L736.894,350.124z M737.767,349.885l0.591,0.197c0.251,0.084,0.42,0.128,0.517,0.123
			c0.095-0.006,0.18-0.034,0.256-0.093c0.077-0.056,0.128-0.12,0.154-0.202c0.035-0.097,0.025-0.197-0.026-0.284
			c-0.051-0.087-0.161-0.163-0.332-0.22l-0.729-0.246L737.767,349.885z M738.478,348.677l0.463,0.161
			c0.213,0.069,0.369,0.107,0.469,0.107c0.103,0,0.189-0.025,0.259-0.076c0.066-0.054,0.117-0.118,0.143-0.194
			c0.021-0.077,0.021-0.144-0.005-0.21c-0.025-0.064-0.077-0.115-0.153-0.159c-0.036-0.025-0.146-0.066-0.314-0.117l-0.479-0.161
			L738.478,348.677z"/>
		<path fill="#416B85" d="M742.074,351.136l-1.178-0.396l-0.583,0.537l-0.627-0.212l2.689-2.408l0.681,0.226l-0.522,3.143
			l-0.578-0.195L742.074,351.136z M742.166,350.615l0.23-1.254l-1.123,0.954L742.166,350.615z"/>
		<path fill="#416B85" d="M745.285,352.954l-0.567-0.194l-0.128-2.271l-1.096,1.86l-0.573-0.194l1.628-2.766l0.573,0.188
			l0.136,2.266l1.09-1.851l0.568,0.189L745.285,352.954z"/>
		<path fill="#416B85" d="M745.905,353.164l1.63-2.774l0.614,0.213l-0.691,1.172l1.805-0.801l0.818,0.278l-1.729,0.717l0.371,2.14
			l-0.693-0.23l-0.259-1.669l-0.747,0.31l-0.502,0.848L745.905,353.164z"/>
		<path fill="#416B85" d="M752.46,355.37l-0.573-0.195l-0.133-2.272l-1.09,1.863l-0.571-0.194l1.623-2.769l0.573,0.191l0.133,2.265
			l1.09-1.853l0.568,0.192L752.46,355.37z"/>
		<path fill="#416B85" d="M755.25,355.577l-1.177-0.396l-0.581,0.537l-0.627-0.213l2.688-2.407l0.681,0.225l-0.52,3.146
			l-0.581-0.194L755.25,355.577z M755.347,355.057l0.23-1.257l-1.126,0.957L755.347,355.057z"/>
		<path fill="#416B85" d="M757.798,357.166l-0.581-0.197l0.729-2.521l-1.308,2.329l-0.553-0.185l1.625-2.771l0.87,0.297
			l-0.608,2.116l1.719-1.748l0.881,0.3l-1.625,2.771l-0.561-0.189l1.42-2.274L757.798,357.166z"/>
		<path fill="#416B85" d="M759.554,357.759l1.622-2.769l2.211,0.742l-0.271,0.468l-1.6-0.54l-0.368,0.627l1.545,0.518l-0.271,0.468
			l-1.543-0.521l-0.46,0.747l1.734,0.581l-0.273,0.463L759.554,357.759z"/>
	</g>
</g>
<path fill="#FAD5B6" d="M678.551,341.489c0,0-2.227-2.638-0.218-6.149c1.999-3.513,7.495-3.421,7.495-3.421
	S686.53,334.45,678.551,341.489z"/>
<radialGradient id="SVGID_2_" cx="568.8872" cy="247.1748" r="11.6174" gradientTransform="matrix(0 1 1 0 432.8682 -236.2231)" gradientUnits="userSpaceOnUse">
	<stop  offset="0" style="stop-color:#F74E1E"/>
	<stop  offset="0.1047" style="stop-color:#C63F18;stop-opacity:0.8953"/>
	<stop  offset="0.2318" style="stop-color:#922E12;stop-opacity:0.7682"/>
	<stop  offset="0.361" style="stop-color:#65200C;stop-opacity:0.639"/>
	<stop  offset="0.4899" style="stop-color:#411408;stop-opacity:0.5101"/>
	<stop  offset="0.6184" style="stop-color:#240B04;stop-opacity:0.3816"/>
	<stop  offset="0.7464" style="stop-color:#100502;stop-opacity:0.2536"/>
	<stop  offset="0.8738" style="stop-color:#040100;stop-opacity:0.1262"/>
	<stop  offset="1" style="stop-color:#000000;stop-opacity:0"/>
</radialGradient>
<path fill="url(#SVGID_2_)" d="M680.041,344.281c6.421,0,11.62-5.202,11.62-11.615c0-6.418-5.199-11.618-11.62-11.618
	c-6.413,0-11.615,5.2-11.615,11.618C668.425,339.079,673.627,344.281,680.041,344.281z"/>
<path fill="#F2CEA9" d="M669.139,346.689c-0.197-0.379-0.543-1.028-0.625-1.195c-1.85-3.736-3.533-7.572-5.057-11.467
	c3.806-2.59,7.442-4.627,10.572-5.243c9.57-1.892,12.088,1.118,11.86,4.394c-0.204,2.896-10.445,10.723-15.562,15.574
	C669.927,348.068,669.526,347.382,669.139,346.689z"/>
<path fill="#FAD5B6" d="M678.551,341.489c0,0-2.227-2.638-0.218-6.149c1.999-3.513,7.495-3.421,7.495-3.421
	S686.53,334.45,678.551,341.489z"/>
<rect x="559.948" y="444.505" fill="#4D4D4D" width="95" height="167"/>
<rect x="559.948" y="444.505" fill="#333333" width="45" height="167"/>
<rect x="562.948" y="431.505" fill="#FFFFFF" width="84" height="13"/>
</svg>
